<svg width="425" height="240" viewBox="0 0 425 240" fill="none" xmlns="http://www.w3.org/2000/svg">
<path d="M313.891 119.565C313.891 185.599 260.457 239.13 194.542 239.13C128.628 239.13 75.1934 185.599 75.1934 119.565C75.1934 53.5312 128.628 0 194.542 0C260.457 0 313.891 53.5312 313.891 119.565ZM110.998 119.565C110.998 165.789 148.402 203.261 194.542 203.261C240.683 203.261 278.087 165.789 278.087 119.565C278.087 73.3414 240.683 35.8696 194.542 35.8696C148.402 35.8696 110.998 73.3414 110.998 119.565Z" fill="#A08CF8"/>
<path d="M194.542 0C172.546 0 150.978 6.08989 132.218 17.5971C113.46 29.1044 98.2396 45.5814 88.2393 65.2087C78.24 84.8361 73.849 106.85 75.5514 128.821C77.2537 150.79 84.9843 171.862 97.8881 189.708C110.792 207.553 128.369 221.479 148.675 229.948C168.982 238.417 191.231 241.099 212.963 237.698C234.696 234.297 255.067 224.945 271.83 210.675C288.59 196.404 301.09 177.772 307.946 156.834L273.925 145.653C269.126 160.31 260.376 173.352 248.643 183.341C236.91 193.33 222.65 199.877 207.437 202.258C192.224 204.639 176.651 202.762 162.435 196.834C148.221 190.905 135.917 181.157 126.884 168.665C117.852 156.173 112.441 141.423 111.249 126.043C110.057 110.665 113.131 95.2544 120.13 81.5157C127.131 67.7765 137.784 56.2426 150.916 48.1875C164.047 40.1325 179.145 35.8696 194.542 35.8696V0Z" fill="#EC82C7"/>
<path d="M194.543 0C165.833 0 138.085 10.3676 116.387 29.2018C94.6897 48.0361 80.4969 74.0747 76.4087 102.543L111.849 107.65C114.71 87.7218 124.646 69.4948 139.834 56.3109C155.023 43.1268 174.446 35.8696 194.543 35.8696V0Z" fill="#B26DC9"/>
<path d="M155.987 128.887C157.098 128.725 157.932 128.348 158.487 127.757C159.043 127.153 159.32 126.353 159.32 125.357C159.32 124.962 159.251 124.621 159.112 124.33C158.973 124.029 158.782 123.762 158.539 123.53C158.296 123.299 158.006 123.096 157.671 122.922C157.335 122.736 156.97 122.574 156.578 122.435L155.987 128.887ZM154.651 111.148C154.06 111.229 153.557 111.362 153.14 111.548C152.724 111.722 152.382 111.936 152.116 112.191C151.861 112.447 151.67 112.73 151.543 113.044C151.427 113.345 151.37 113.67 151.37 114.017C151.37 114.412 151.433 114.765 151.561 115.078C151.699 115.379 151.89 115.652 152.133 115.896C152.376 116.139 152.665 116.36 153.001 116.557C153.337 116.742 153.707 116.91 154.112 117.061L154.651 111.148ZM156.977 118C157.532 118.162 158.088 118.342 158.643 118.539C159.199 118.725 159.731 118.939 160.24 119.183C160.749 119.426 161.223 119.71 161.664 120.035C162.103 120.36 162.485 120.742 162.81 121.183C163.145 121.612 163.405 122.11 163.591 122.678C163.775 123.247 163.869 123.896 163.869 124.626C163.869 125.704 163.683 126.725 163.313 127.687C162.954 128.638 162.421 129.484 161.716 130.226C161.01 130.957 160.147 131.553 159.129 132.017C158.111 132.482 156.942 132.76 155.623 132.852L155.414 135.217C155.391 135.519 155.264 135.791 155.033 136.035C154.8 136.278 154.5 136.4 154.13 136.4H152.376L152.706 132.73C152.047 132.638 151.392 132.499 150.745 132.313C150.108 132.116 149.495 131.884 148.904 131.617C148.314 131.339 147.759 131.032 147.238 130.696C146.717 130.348 146.248 129.971 145.832 129.565L147.307 127.391C147.434 127.205 147.608 127.055 147.828 126.939C148.047 126.812 148.273 126.748 148.505 126.748C148.771 126.748 149.049 126.829 149.338 126.991C149.627 127.153 149.946 127.351 150.293 127.583C150.651 127.803 151.051 128.029 151.491 128.261C151.942 128.492 152.463 128.673 153.053 128.8L153.713 121.583C153.158 121.432 152.602 121.264 152.047 121.078C151.502 120.882 150.976 120.655 150.467 120.4C149.957 120.145 149.483 119.849 149.043 119.513C148.615 119.165 148.238 118.753 147.915 118.278C147.591 117.803 147.336 117.258 147.151 116.644C146.966 116.017 146.873 115.299 146.873 114.487C146.873 113.583 147.052 112.708 147.412 111.861C147.77 111.003 148.29 110.238 148.974 109.565C149.668 108.892 150.519 108.342 151.526 107.913C152.533 107.473 153.689 107.217 154.998 107.148L155.189 105.078C155.212 104.777 155.338 104.51 155.571 104.278C155.814 104.035 156.114 103.913 156.473 103.913H158.244L157.932 107.322C159.182 107.542 160.251 107.901 161.143 108.4C162.034 108.899 162.798 109.461 163.435 110.087L162.254 111.826C162.091 112.092 161.918 112.29 161.733 112.417C161.548 112.534 161.328 112.591 161.074 112.591C160.9 112.591 160.692 112.545 160.449 112.452C160.217 112.348 159.956 112.226 159.668 112.087C159.378 111.936 159.053 111.786 158.695 111.635C158.348 111.484 157.977 111.357 157.584 111.252L156.977 118ZM177.472 122.974V115.461C177.472 115.066 177.484 114.649 177.507 114.209C177.542 113.757 177.588 113.287 177.646 112.8L170.355 122.974H177.472ZM184.555 122.974V125.687C184.555 125.942 184.468 126.162 184.295 126.348C184.133 126.522 183.901 126.609 183.6 126.609H181.639V132.609H177.472V126.609H167.074C166.773 126.609 166.495 126.516 166.24 126.33C165.997 126.145 165.847 125.901 165.789 125.6L165.286 123.2L177.09 107.357H181.639V122.974H184.555ZM204.965 119.983C204.965 122.186 204.727 124.099 204.253 125.722C203.778 127.345 203.125 128.69 202.291 129.757C201.458 130.812 200.469 131.6 199.323 132.122C198.188 132.632 196.962 132.887 195.643 132.887C194.323 132.887 193.096 132.632 191.962 132.122C190.827 131.6 189.85 130.812 189.029 129.757C188.206 128.69 187.558 127.345 187.084 125.722C186.621 124.099 186.39 122.186 186.39 119.983C186.39 117.779 186.621 115.873 187.084 114.261C187.558 112.638 188.206 111.299 189.029 110.244C189.85 109.177 190.827 108.388 191.962 107.878C193.096 107.357 194.323 107.096 195.643 107.096C196.962 107.096 198.188 107.357 199.323 107.878C200.469 108.388 201.458 109.177 202.291 110.244C203.125 111.299 203.778 112.638 204.253 114.261C204.727 115.873 204.965 117.779 204.965 119.983ZM200.017 119.983C200.017 118.197 199.889 116.725 199.635 115.565C199.392 114.405 199.068 113.49 198.663 112.817C198.257 112.145 197.789 111.675 197.257 111.409C196.736 111.142 196.198 111.009 195.643 111.009C195.087 111.009 194.549 111.142 194.028 111.409C193.518 111.675 193.061 112.145 192.657 112.817C192.263 113.49 191.945 114.405 191.702 115.565C191.459 116.725 191.337 118.197 191.337 119.983C191.337 121.779 191.459 123.258 191.702 124.417C191.945 125.577 192.263 126.492 192.657 127.165C193.061 127.838 193.518 128.308 194.028 128.574C194.549 128.84 195.087 128.974 195.643 128.974C196.198 128.974 196.736 128.84 197.257 128.574C197.789 128.308 198.257 127.838 198.663 127.165C199.068 126.492 199.392 125.577 199.635 124.417C199.889 123.258 200.017 121.779 200.017 119.983ZM225.321 119.983C225.321 122.186 225.084 124.099 224.61 125.722C224.136 127.345 223.481 128.69 222.648 129.757C221.815 130.812 220.825 131.6 219.68 132.122C218.546 132.632 217.319 132.887 215.999 132.887C214.68 132.887 213.453 132.632 212.319 132.122C211.185 131.6 210.206 130.812 209.385 129.757C208.564 128.69 207.915 127.345 207.441 125.722C206.978 124.099 206.746 122.186 206.746 119.983C206.746 117.779 206.978 115.873 207.441 114.261C207.915 112.638 208.564 111.299 209.385 110.244C210.206 109.177 211.185 108.388 212.319 107.878C213.453 107.357 214.68 107.096 215.999 107.096C217.319 107.096 218.546 107.357 219.68 107.878C220.825 108.388 221.815 109.177 222.648 110.244C223.481 111.299 224.136 112.638 224.61 114.261C225.084 115.873 225.321 117.779 225.321 119.983ZM220.374 119.983C220.374 118.197 220.247 116.725 219.992 115.565C219.749 114.405 219.425 113.49 219.02 112.817C218.615 112.145 218.146 111.675 217.614 111.409C217.093 111.142 216.555 111.009 215.999 111.009C215.444 111.009 214.906 111.142 214.385 111.409C213.876 111.675 213.418 112.145 213.013 112.817C212.619 113.49 212.302 114.405 212.059 115.565C211.816 116.725 211.694 118.197 211.694 119.983C211.694 121.779 211.816 123.258 212.059 124.417C212.302 125.577 212.619 126.492 213.013 127.165C213.418 127.838 213.876 128.308 214.385 128.574C214.906 128.84 215.444 128.974 215.999 128.974C216.555 128.974 217.093 128.84 217.614 128.574C218.146 128.308 218.615 127.838 219.02 127.165C219.425 126.492 219.749 125.577 219.992 124.417C220.247 123.258 220.374 121.779 220.374 119.983ZM233.093 106.678V121.391H233.892C234.192 121.391 234.43 121.351 234.604 121.27C234.777 121.177 234.951 121.014 235.124 120.783L239.082 115.496C239.279 115.229 239.499 115.026 239.742 114.887C239.996 114.748 240.315 114.678 240.697 114.678H245.072L239.933 121.217C239.527 121.762 239.059 122.191 238.527 122.504C238.793 122.69 239.024 122.904 239.221 123.148C239.418 123.391 239.609 123.664 239.794 123.965L245.332 132.609H241.027C240.656 132.609 240.338 132.551 240.072 132.435C239.805 132.308 239.586 132.087 239.412 131.774L235.385 125.183C235.222 124.904 235.055 124.725 234.881 124.644C234.708 124.562 234.447 124.522 234.1 124.522H233.093V132.609H228.302V106.678H233.093Z" fill="white"/>
<g filter="url(#filter0_dd_341_389)">
<rect x="237" y="41.6084" width="176" height="50" rx="4" fill="white"/>
<path fill-rule="evenodd" clip-rule="evenodd" d="M395.911 59.081C395.907 59.0002 395.881 58.9219 395.838 58.8533C395.795 58.7848 395.735 58.7283 395.665 58.6891C395.346 58.5281 394.879 58.4184 393.932 58.4184C391.793 58.4184 389.9 59.4824 389.074 61.2627V59.088C389.074 59.0432 389.066 58.9988 389.048 58.9573C389.031 58.9158 389.006 58.8782 388.975 58.8465C388.943 58.8147 388.905 58.7895 388.865 58.7723C388.824 58.755 388.779 58.7462 388.734 58.7462H385.53C385.486 58.7462 385.442 58.755 385.4 58.7723C385.359 58.7895 385.321 58.8147 385.289 58.8465C385.258 58.8782 385.233 58.9158 385.216 58.9573C385.199 58.9988 385.19 59.0432 385.19 59.088V73.7484C385.19 73.9362 385.342 74.089 385.53 74.089H388.887C388.931 74.089 388.975 74.0802 389.017 74.0632C389.058 74.0461 389.096 74.0209 389.127 73.9892C389.159 73.9575 389.184 73.9201 389.201 73.8787C389.218 73.8374 389.227 73.7931 389.227 73.7484V67.1544C389.227 64.2086 391.271 62.7444 393.932 62.7444C394.552 62.7444 395.171 62.8821 395.483 62.9848C395.696 63.0548 395.911 62.8797 395.911 62.6545V59.081ZM374.466 70.491C372.172 70.491 370.399 68.866 370.399 66.4113C370.399 63.9566 372.173 62.3302 374.466 62.3302C376.759 62.3302 378.533 63.9566 378.533 66.4113C378.533 68.866 376.759 70.4922 374.466 70.4922V70.491ZM374.466 58.3705C369.757 58.3705 366.241 61.6245 366.241 66.4113C366.241 71.1981 369.758 74.4508 374.466 74.4508C379.174 74.4508 382.69 71.1981 382.69 66.4124C382.69 61.6244 379.174 58.3705 374.466 58.3705ZM355.794 70.4922C353.499 70.4922 351.725 68.866 351.725 66.4113C351.725 63.9566 353.499 62.3302 355.794 62.3302C358.087 62.3302 359.858 63.9566 359.858 66.4113C359.858 68.866 358.087 70.4922 355.794 70.4922ZM355.794 58.3705C351.085 58.3705 347.567 61.6245 347.567 66.4113C347.567 71.1981 351.085 74.4508 355.794 74.4508C360.5 74.4508 364.018 71.1981 364.018 66.4113C364.018 61.6245 360.5 58.3705 355.794 58.3705ZM337.146 70.5295C334.853 70.5295 333.141 68.9033 333.141 66.4183C333.141 63.9321 334.853 62.3058 337.146 62.3058C339.41 62.3058 341.153 63.8714 341.153 66.4183C341.153 68.9336 339.41 70.5295 337.146 70.5295ZM344.727 52.6096H341.37C341.281 52.6096 341.194 52.6454 341.13 52.7094C341.066 52.7733 341.03 52.8599 341.03 52.9502V60.9559C339.991 59.4824 338.278 58.346 335.895 58.346C332.164 58.346 328.983 61.2324 328.983 66.4183C328.983 71.6041 332.163 74.4881 335.954 74.4881C338.187 74.4881 339.93 73.5058 341.031 71.9413V73.7484C341.031 73.9362 341.183 74.089 341.369 74.089H344.727C344.913 74.089 345.066 73.9374 345.066 73.7484V52.9502C345.066 52.8601 345.03 52.7736 344.967 52.7098C344.903 52.646 344.816 52.6098 344.727 52.6096ZM326.76 69.4446C326.76 72.9446 324.222 74.4472 320.156 74.4472C317.346 74.4472 314.931 73.689 313.549 72.1186C313.496 72.057 313.467 71.9792 313.465 71.8985C313.464 71.8176 313.49 71.7388 313.54 71.6752L315.48 69.1482C315.51 69.1101 315.548 69.0789 315.591 69.0568C315.634 69.0347 315.681 69.0223 315.73 69.0205C315.778 69.0186 315.826 69.0272 315.872 69.0458C315.916 69.0644 315.956 69.0927 315.989 69.1284C317.014 70.1819 318.59 70.8258 320.554 70.8258C321.684 70.8258 322.601 70.5202 322.601 69.6604C322.601 68.832 321.776 68.6478 319.208 68.0948C316.945 67.6351 314.131 66.5921 314.131 63.2472C314.131 60.1474 316.579 58.3682 320.583 58.3682C323.219 58.3682 325.113 59.1662 326.448 60.4216C326.576 60.5418 326.588 60.7448 326.479 60.8836L324.638 63.2823C324.611 63.3192 324.577 63.3498 324.537 63.3727C324.498 63.3956 324.454 63.4099 324.409 63.415C324.364 63.4201 324.318 63.4156 324.275 63.4021C324.231 63.3884 324.191 63.3658 324.156 63.3358C323.253 62.5273 321.753 62.02 320.278 62.02C319.026 62.02 318.321 62.419 318.321 63.0933C318.321 63.861 319.148 64.0452 321.869 64.6286C324.527 65.2118 326.76 66.2234 326.76 69.4458V69.4446ZM311.241 69.4538C311.241 72.9527 308.703 74.4566 304.637 74.4566C301.828 74.4566 299.412 73.6982 298.029 72.1267C297.978 72.0654 297.947 71.9878 297.946 71.9073C297.944 71.8267 297.97 71.748 298.019 71.6845L299.96 69.1564C299.99 69.1184 300.029 69.0875 300.072 69.0656C300.115 69.0438 300.162 69.0317 300.21 69.0299C300.259 69.0281 300.307 69.0368 300.351 69.0554C300.396 69.074 300.436 69.1021 300.469 69.1377C301.495 70.19 303.072 70.8353 305.034 70.8353C306.165 70.8353 307.083 70.5296 307.083 69.6686C307.083 68.8403 306.257 68.657 303.689 68.104C301.425 67.6432 298.612 66.6002 298.612 63.2565C298.612 60.1567 301.059 58.3775 305.064 58.3775C307.699 58.3775 309.593 59.1744 310.928 60.4308C311.056 60.551 311.068 60.7528 310.96 60.8928L309.119 63.2916C309.001 63.4432 308.78 63.4736 308.637 63.3452C307.733 62.5368 306.233 62.028 304.76 62.028C303.505 62.028 302.802 62.4282 302.802 63.1026C302.802 63.8702 303.629 64.0546 306.348 64.638C309.009 65.2201 311.239 66.2327 311.239 69.4538H311.241ZM291.126 67.8906C291.126 69.5776 289.752 71.051 287.61 71.051C286.203 71.051 285.439 70.4058 285.439 69.4235C285.439 68.5648 286.082 67.9197 287.335 67.7353L291.126 67.2758V67.8894V67.8906ZM288.467 58.4078C285.265 58.4078 282.853 59.4835 281.774 61.6103C281.739 61.6842 281.73 61.7682 281.751 61.8476C281.771 61.927 281.818 61.9967 281.885 62.0444L284.332 63.7991C284.486 63.9088 284.702 63.8725 284.794 63.7057C285.474 62.4784 286.994 62.0595 288.467 62.0595C290.271 62.0595 291.126 62.7036 291.126 63.5938V63.8387C291.126 64.2074 290.913 64.3917 290.331 64.4535L286.142 64.8211C283.33 65.0964 281.251 66.8465 281.251 69.6383C281.251 72.4616 283.391 74.425 286.417 74.425C288.803 74.425 290.331 73.2596 291.126 72.0323V73.7776C291.126 73.9666 291.277 74.1194 291.465 74.1194H294.822C294.912 74.1194 294.999 74.0834 295.062 74.0196C295.127 73.9557 295.162 73.8691 295.162 73.7788V64.6368C295.162 60.3715 292.929 58.4078 288.466 58.4078H288.467ZM278.482 52.949V73.7472C278.482 73.9351 278.331 74.0879 278.142 74.0879H274.756C274.666 74.0879 274.579 74.052 274.515 73.9881C274.452 73.9242 274.415 73.8376 274.415 73.7472V52.9432C274.415 52.7578 274.565 52.6084 274.748 52.6084H278.142C278.329 52.6084 278.482 52.76 278.482 52.949ZM263.163 70.5133C260.869 70.5133 259.158 68.8868 259.158 66.4018C259.158 63.9168 260.87 62.2894 263.163 62.2894C265.457 62.2894 267.139 63.855 267.139 66.4018C267.139 68.9172 265.456 70.5133 263.163 70.5133ZM270.743 58.7298H267.391C267.3 58.7298 267.212 58.7664 267.147 58.8311C267.083 58.8959 267.046 58.9836 267.046 59.0752V60.8788C266.19 59.4976 264.417 58.3612 262.063 58.3612C258.271 58.3612 255 61.216 255 66.3412C255 71.4338 258.118 74.2256 262.185 74.2256C264.387 74.2256 266.098 73.3051 267.107 71.8631V72.8453C267.107 75.0538 266.037 76.804 262.613 76.804C260.892 76.804 259.51 76.2288 258.297 75.1518C258.26 75.1185 258.217 75.0935 258.17 75.0787C258.124 75.064 258.073 75.0598 258.025 75.0665C257.977 75.0734 257.929 75.091 257.888 75.118C257.848 75.1451 257.812 75.181 257.786 75.2231L256.267 77.7805C256.071 78.1106 256.096 78.2973 256.22 78.4058C257.783 79.7673 259.815 80.6084 262.767 80.6084C269.186 80.6084 271.083 77.0198 271.083 73.0601V59.0718C271.083 59.027 271.074 58.9825 271.057 58.941C271.04 58.8996 271.015 58.8619 270.984 58.8301C270.952 58.7983 270.914 58.7731 270.873 58.7559C270.831 58.7387 270.787 58.7298 270.743 58.7298Z" fill="#0CAA41"/>
</g>
<g filter="url(#filter1_dd_341_389)">
<rect x="46" y="12.6084" width="110" height="56" rx="4" fill="white"/>
<path d="M69.1309 37.5345C69.1309 36.7422 69.7797 36.4373 70.855 36.4373C72.3957 36.4373 74.3432 36.9047 75.8839 37.7377V32.9631C74.2011 32.2927 72.5378 32.0286 70.855 32.0286C66.7374 32.0286 64 34.1822 64 37.7784C64 43.3858 71.7067 42.4919 71.7067 44.9097C71.7067 45.8442 70.8951 46.1489 69.7591 46.1489C68.0763 46.1489 65.9269 45.4582 64.2235 44.5236V49.3591C66.1092 50.1718 68.0156 50.517 69.7591 50.517C73.9776 50.517 76.8778 48.4245 76.8778 44.7877C76.8582 38.7333 69.1309 39.81 69.1309 37.5345ZM82.8409 27.9652L77.8922 29.0217L77.8716 45.2956C77.8716 48.3026 80.123 50.517 83.1241 50.517C84.7873 50.517 86.0036 50.2123 86.6731 49.8467V45.7223C86.0242 45.9864 82.8202 46.921 82.8202 43.9141V36.7014H86.6731V32.3739H82.8202L82.8409 27.9652ZM92.9801 33.8774L92.6557 32.3739H88.2756V50.1513H93.3457V38.1034C94.5425 36.5391 96.5704 36.8235 97.1986 37.0469V32.3739C96.5497 32.1301 94.1769 31.6832 92.9801 33.8774ZM98.4355 32.3739H103.526V50.1513H98.4355V32.3739ZM98.4355 30.8299L103.526 29.7327V25.6084L98.4355 26.6853V30.8297V30.8299ZM114.112 32.0286C112.125 32.0286 110.848 32.9631 110.138 33.6134L109.873 32.3537H105.412V56.0432L110.482 54.9666L110.503 49.2168C111.233 49.745 112.308 50.4968 114.092 50.4968C117.722 50.4968 121.028 47.5711 121.028 41.1307C121.008 35.2386 117.661 32.0286 114.112 32.0286ZM112.896 46.027C111.699 46.027 110.989 45.6005 110.503 45.0722L110.482 37.5345C111.009 36.9454 111.74 36.5391 112.896 36.5391C114.742 36.5391 116.019 38.6113 116.019 41.2729C116.019 43.9954 114.761 46.027 112.896 46.027ZM137.009 41.3338C137.009 36.1326 134.494 32.0286 129.688 32.0286C124.861 32.0286 121.941 36.1327 121.941 41.2932C121.941 47.4085 125.389 50.4968 130.336 50.4968C132.75 50.4968 134.575 49.9482 135.954 49.1762V45.1127C134.575 45.8036 132.993 46.2303 130.986 46.2303C129.018 46.2303 127.275 45.5394 127.051 43.1421H136.969C136.969 42.8777 137.009 41.8213 137.009 41.3338ZM126.99 39.4037C126.99 37.1079 128.39 36.153 129.668 36.153C130.905 36.153 132.223 37.1079 132.223 39.4037H126.99Z" fill="#6772E5"/>
</g>
<g filter="url(#filter2_dd_341_389)">
<rect x="12" y="169.608" width="161" height="50" rx="4" fill="white"/>
<path fill-rule="evenodd" clip-rule="evenodd" d="M36.1643 199.464C38.0478 199.464 39.4995 198.976 40.5162 198.001C41.5339 197.025 42.0427 195.683 42.0427 193.974C42.0427 193.119 41.9245 192.343 41.689 191.646C41.4536 190.95 41.0956 190.355 40.6149 189.862C40.1343 189.37 39.5277 188.989 38.7932 188.719C38.0576 188.451 37.182 188.316 36.1643 188.316H33.5646V199.464H36.1643ZM29.2974 184.608H36.4192C37.8688 184.608 39.212 184.794 40.4456 185.166C41.6793 185.538 42.7437 186.105 43.6388 186.866C44.5339 187.628 45.2304 188.604 45.7295 189.792C46.2297 190.981 46.4782 192.384 46.4782 194.001C46.4782 195.543 46.2243 196.886 45.7154 198.028C45.2077 199.171 44.5057 200.129 43.6106 200.9C42.7154 201.67 41.6511 202.246 40.4174 202.628C39.1827 203.008 37.8406 203.199 36.3899 203.199H29.2974V184.608ZM57.5571 195.28C57.5571 195.001 57.5007 194.719 57.3868 194.43C57.274 194.143 57.1047 193.878 56.8779 193.635C56.6523 193.395 56.3702 193.195 56.0306 193.036C55.691 192.879 55.2863 192.799 54.8154 192.799C54.3445 192.799 53.93 192.879 53.572 193.036C53.2139 193.195 52.9177 193.395 52.6823 193.635C52.4468 193.878 52.2678 194.143 52.1452 194.43C52.0226 194.719 51.9618 195.001 51.9618 195.28H57.5571ZM61.117 201.774C60.9662 201.868 60.7405 202.021 60.4389 202.234C60.1373 202.448 59.7467 202.657 59.266 202.861C58.7865 203.066 58.2157 203.247 57.5571 203.405C56.8975 203.562 56.1434 203.642 55.296 203.642C54.1655 203.642 53.1478 203.47 52.244 203.126C51.3402 202.783 50.572 202.304 49.9416 201.691C49.3101 201.078 48.8295 200.338 48.4996 199.474C48.1698 198.611 48.0049 197.659 48.0049 196.618C48.0049 195.708 48.1611 194.83 48.4714 193.984C48.7828 193.138 49.2298 192.4 49.8136 191.769C50.3973 191.137 51.1134 190.631 51.9618 190.249C52.8092 189.869 53.7705 189.679 54.8436 189.679C55.9177 189.679 56.8595 189.865 57.67 190.235C58.4794 190.608 59.1629 191.123 59.7185 191.783C60.274 192.442 60.6939 193.232 60.976 194.151C61.2591 195.071 61.4002 196.08 61.4002 197.175V197.845H51.9618C51.9803 198.55 52.296 199.168 52.908 199.698C53.5199 200.228 54.3629 200.493 55.4371 200.493C56.4917 200.493 57.3499 200.338 58.0085 200.032C58.6682 199.725 59.1488 199.461 59.4494 199.238L61.117 201.774ZM66.1761 190.128H61.6538L67.2491 203.199H71.0932L76.7721 190.128H72.3355L69.3128 198.712L66.1761 190.128Z" fill="#82B801"/>
<path fill-rule="evenodd" clip-rule="evenodd" d="M80.9603 198.948C80.6305 198.679 80.343 198.414 80.0988 198.154L77.3582 201.08C77.7151 201.47 78.1437 201.851 78.6428 202.223C79.1419 202.594 79.7028 202.925 80.3245 203.213C80.9462 203.501 81.6428 203.732 82.4164 203.908C83.1878 204.086 84.045 204.174 84.9867 204.174C86.0045 204.174 86.9516 204.029 87.8272 203.742C88.7028 203.454 89.4656 203.05 90.1166 202.529C90.7665 202.009 91.2786 201.396 91.6562 200.69C92.0327 199.983 92.2215 199.213 92.2215 198.377C92.2215 197.411 92.0609 196.588 91.7408 195.909C91.4197 195.231 90.9965 194.661 90.4692 194.195C89.9419 193.731 89.3441 193.355 88.6746 193.067C88.0063 192.779 87.3227 192.551 86.6262 192.383C85.4392 192.124 84.5072 191.799 83.828 191.408C83.1498 191.018 82.8113 190.507 82.8113 189.876C82.8113 189.634 82.8819 189.406 83.0229 189.193C83.1639 188.979 83.3527 188.793 83.5882 188.636C83.8236 188.478 84.0873 188.353 84.3791 188.259C84.6721 188.166 84.9683 188.119 85.2699 188.119C85.7224 188.119 86.1498 188.176 86.5556 188.287C86.9603 188.399 87.3325 188.538 87.6721 188.705C88.0106 188.873 88.3166 189.053 88.59 189.249C88.8634 189.443 89.1032 189.625 89.3104 189.792L91.769 187.117C91.5997 186.95 91.3502 186.721 91.0204 186.433C90.6905 186.145 90.2663 185.867 89.7487 185.598C89.2301 185.328 88.6041 185.095 87.8696 184.901C87.135 184.706 86.2876 184.608 85.3263 184.608C84.1578 184.608 83.1455 184.762 82.2884 185.068C81.4312 185.375 80.7151 185.792 80.1412 186.323C79.5661 186.852 79.1375 187.461 78.8554 188.148C78.5723 188.836 78.4312 189.569 78.4312 190.35C78.4312 191.055 78.5538 191.696 78.7979 192.273C79.0432 192.849 79.3871 193.359 79.8298 193.805C80.2724 194.251 80.7997 194.632 81.4128 194.949C82.0247 195.265 82.6887 195.505 83.4048 195.673C84.8739 196.045 85.948 196.421 86.6262 196.801C87.3043 197.182 87.6439 197.717 87.6439 198.405C87.6439 198.72 87.5636 199.003 87.403 199.254C87.2435 199.505 87.0309 199.719 86.7672 199.895C86.5036 200.073 86.2117 200.206 85.8916 200.3C85.5715 200.393 85.2515 200.439 84.9303 200.439C84.3835 200.439 83.8714 200.369 83.3907 200.23C82.9101 200.09 82.4674 199.909 82.0627 199.687C81.6569 199.464 81.2902 199.217 80.9603 198.948ZM98.5197 185.109H94.45V203.7H98.5197V199.38L99.7067 198.181L103.097 203.7H107.816L102.419 195.45L107.166 190.628H102.56L98.5197 194.753V185.109ZM109.624 190.629H113.692V203.701H109.624V190.629ZM121.11 188.026H117.041V203.697H121.11V188.026ZM124.342 185.065H128.411V203.701H124.342V185.065ZM140.077 194.932C140.19 195.22 140.246 195.503 140.246 195.782H134.651C134.651 195.503 134.713 195.22 134.836 194.932C134.957 194.644 135.136 194.379 135.372 194.137C135.608 193.896 135.904 193.696 136.262 193.538C136.619 193.381 137.035 193.301 137.506 193.301C137.977 193.301 138.381 193.381 138.721 193.538C139.059 193.696 139.343 193.896 139.568 194.137C139.794 194.379 139.964 194.644 140.077 194.932ZM143.129 202.736C143.43 202.522 143.657 202.369 143.807 202.275L142.14 199.74C141.838 199.962 141.359 200.228 140.699 200.534C140.039 200.841 139.182 200.994 138.127 200.994C137.053 200.994 136.21 200.729 135.598 200.199C134.985 199.67 134.67 199.053 134.651 198.346H144.09V197.678C144.09 196.581 143.948 195.573 143.665 194.654C143.383 193.733 142.964 192.944 142.409 192.284C141.852 191.624 141.169 191.109 140.359 190.737C139.549 190.366 138.608 190.18 137.534 190.18C136.46 190.18 135.5 190.37 134.651 190.751C133.804 191.132 133.088 191.638 132.504 192.27C131.92 192.901 131.472 193.641 131.162 194.486C130.85 195.332 130.695 196.21 130.695 197.12C130.695 198.16 130.86 199.112 131.19 199.976C131.52 200.841 131.999 201.579 132.631 202.192C133.262 202.805 134.029 203.284 134.934 203.628C135.838 203.971 136.856 204.143 137.986 204.143C138.834 204.143 139.587 204.065 140.246 203.907C140.906 203.748 141.476 203.568 141.956 203.362C142.437 203.158 142.828 202.949 143.129 202.736ZM146.17 190.626H150.07L150.212 192.271C150.551 191.825 151.017 191.398 151.611 190.988C152.205 190.579 152.971 190.375 153.914 190.375C154.272 190.375 154.578 190.393 154.833 190.43C155.087 190.468 155.335 190.534 155.581 190.626L154.932 194.165C154.517 194.036 154.026 193.971 153.462 193.971C152.501 193.971 151.723 194.254 151.13 194.821C150.536 195.388 150.24 196.191 150.24 197.232V203.698H146.17V190.626ZM113.713 185.123H109.601V188.719H113.713V185.123Z" fill="black"/>
</g>
<path d="M358.376 144.564H248.792C243.998 144.564 240.112 148.458 240.112 153.26V183.695C240.112 188.497 243.998 192.391 248.792 192.391H358.376C363.17 192.391 367.056 188.497 367.056 183.695V153.26C367.056 148.458 363.17 144.564 358.376 144.564Z" fill="white"/>
<path d="M269.993 162.396C269.993 162.396 266 160.293 260.765 162.233L262.116 163.7L260.814 164.396L262.495 166.342L269.993 162.396ZM273.72 166.342V170.124C273.72 170.124 274.799 168.722 276.958 168.722V167.744C274.799 167.744 273.72 166.342 273.72 166.342Z" fill="#F4DB12"/>
<path d="M265.083 173.26C265.083 173.26 267.73 174.336 266.434 177.472C266.217 178.015 267.73 178.608 269.022 178.015C269.076 177.961 268.371 177.58 268.371 177.037C268.371 176.711 269.022 174.39 269.022 174.39L265.083 173.26Z" fill="#DF282B"/>
<path d="M268.973 177.961C268.973 177.961 266.808 176.929 268.268 174.124C269.673 171.478 270.481 174.668 270.481 174.668C270.481 174.668 268.268 176.336 268.967 177.961H268.973Z" fill="#D3D2D3"/>
<path d="M277.821 169.532C278.179 169.532 278.523 169.389 278.776 169.135C279.03 168.882 279.172 168.537 279.172 168.178C279.172 167.82 279.03 167.475 278.776 167.222C278.523 166.968 278.179 166.825 277.821 166.825C277.463 166.825 277.119 166.968 276.866 167.222C276.612 167.475 276.47 167.82 276.47 168.178C276.47 168.537 276.612 168.882 276.866 169.135C277.119 169.389 277.463 169.532 277.821 169.532Z" fill="#C02123"/>
<path d="M272.803 162.021C272.477 162.021 272.152 161.967 271.826 161.967C266.163 161.967 262.116 164.233 262.116 168.451C262.116 172.662 266.163 174.934 271.826 174.934C272.152 174.934 272.477 174.934 272.803 174.88V162.021Z" fill="#DF282B"/>
<path d="M262.116 168.45C262.116 172.662 266.163 174.934 271.772 174.934C272.098 174.934 272.423 174.934 272.749 174.88V168.505" fill="#C02123"/>
<path d="M267.785 171.744C268.221 171.763 268.656 171.692 269.064 171.536C269.472 171.382 269.845 171.146 270.16 170.843C270.475 170.54 270.725 170.177 270.897 169.775C271.068 169.372 271.156 168.94 271.156 168.503C271.156 168.065 271.068 167.632 270.897 167.23C270.725 166.828 270.475 166.465 270.16 166.161C269.845 165.859 269.472 165.623 269.064 165.468C268.656 165.314 268.221 165.243 267.785 165.26C266.949 165.295 266.159 165.652 265.581 166.256C265.002 166.859 264.678 167.665 264.678 168.503C264.678 169.34 265.002 170.145 265.581 170.75C266.159 171.354 266.949 171.71 267.785 171.744Z" fill="#DF282B"/>
<path d="M268.051 165.369C268.85 165.39 269.61 165.725 270.165 166.301C270.722 166.877 271.03 167.649 271.023 168.45C271.03 169.25 270.722 170.022 270.167 170.598C269.613 171.174 268.854 171.509 268.056 171.532C267.659 171.526 267.266 171.441 266.902 171.284C266.536 171.125 266.206 170.897 265.93 170.61C265.654 170.324 265.437 169.986 265.291 169.615C265.146 169.245 265.075 168.848 265.083 168.45C265.075 168.052 265.146 167.657 265.291 167.285C265.437 166.914 265.654 166.576 265.93 166.29C266.206 166.003 266.536 165.775 266.902 165.616C267.266 165.459 267.659 165.374 268.056 165.369H268.051ZM268.051 164.287C266.966 164.31 265.933 164.759 265.176 165.538C264.419 166.318 263.998 167.363 264.003 168.45C263.997 168.989 264.097 169.525 264.296 170.026C264.497 170.527 264.793 170.984 265.17 171.37C265.546 171.756 265.996 172.064 266.49 172.276C266.985 172.489 267.518 172.601 268.056 172.608C269.143 172.594 270.179 172.148 270.939 171.368C271.697 170.588 272.116 169.539 272.103 168.45C272.109 167.363 271.687 166.318 270.931 165.538C270.174 164.759 269.141 164.31 268.056 164.287H268.051Z" fill="#F4DB12"/>
<path d="M269.759 168.206L268.403 167.978L268.935 165.206L266.705 168.755L268.056 168.978L267.47 171.913L269.759 168.201V168.206Z" fill="white"/>
<path d="M265.034 166.342C265.034 166.342 261.524 166.94 259.794 168.777L261.524 169.369C261.524 169.369 259.202 169.967 258.014 171.206C258.014 171.206 262.061 169.369 265.571 171.206L264.275 169.478L264.492 169.043L264.166 168.499L265.034 166.342Z" fill="#F4DB12"/>
<path d="M272.803 174.88L274.474 174.717V162.238C273.931 162.13 273.34 162.075 272.803 162.075V174.88Z" fill="#D3D2D3"/>
<path d="M279.118 167.803C278.955 167.26 278.412 166.825 277.821 166.825C277.062 166.825 276.47 167.423 276.47 168.184C276.47 168.342 276.524 168.505 276.579 168.668C276.85 168.885 277.23 169.048 277.609 169.048C278.309 169.048 278.901 168.505 279.118 167.798V167.803Z" fill="#DF282B"/>
<path d="M293.504 165.739C293.504 163.173 291.844 161.956 288.394 161.956C287 161.956 285.644 162.043 284.857 162.086C284.857 162.086 284.597 162.13 284.597 162.391V174.739C284.597 174.739 284.597 175 284.857 175H286.913C286.913 175 287.174 175 287.174 174.739V170.043C287.174 170.043 287.174 169.782 287.434 169.782H288.611C288.611 169.782 288.877 169.782 288.964 170L291.145 174.739C291.145 174.739 291.231 174.956 291.497 174.956H293.765C293.765 174.956 294.025 174.956 293.895 174.739L291.237 169.347C291.237 169.347 291.101 169.13 291.101 169.086L291.318 169C292.501 168.695 293.504 167.434 293.504 165.739ZM290.884 165.869C290.884 167.086 289.962 167.826 288.611 167.826H287.391C287.391 167.826 287.13 167.826 287.13 167.565V164.26C287.13 164.26 287.13 164 287.304 164C287.477 164 287.917 163.956 288.568 163.956C290.011 163.956 290.884 164.434 290.884 165.869ZM349.04 174.913C349.04 174.913 349.3 174.913 349.3 174.641V162.228C349.3 162.228 349.3 161.961 349.04 161.961H347.119C347.119 161.961 346.853 161.961 346.853 162.228V167.461L346.946 170.831V171.103L346.81 170.88C345.546 168.038 343.799 164.978 342.269 162.228C342.269 162.228 342.139 162.01 341.922 162.01H339.524C339.524 162.01 339.259 162.01 339.259 162.271V174.739C339.259 174.739 339.259 175.005 339.524 175.005H341.445C341.445 175.005 341.705 175.005 341.705 174.739V169.728V169.239L341.662 165.869C341.662 165.869 341.662 165.597 341.705 165.597C341.662 165.597 341.705 165.597 341.705 165.597C341.705 165.597 341.749 165.597 341.835 165.82C342.709 167.684 344.06 170.168 346.506 174.695C346.506 174.695 346.636 174.913 346.853 174.913H349.04ZM332.098 175C335.591 175 337.208 173.086 337.208 169.304V162.217C337.208 162.217 337.208 161.956 336.947 161.956H334.848C334.848 161.956 334.588 161.956 334.588 162.217V169.782C334.588 171.869 333.758 172.913 332.098 172.913C330.573 172.913 329.7 171.739 329.7 169.782V162.217C329.7 162.217 329.7 161.956 329.434 161.956H327.34C327.34 161.956 327.079 161.956 327.079 162.217V169.695C327.166 173.304 328.957 175 332.098 175ZM312.497 161.956C312.497 161.956 312.231 161.956 312.145 162.173L310.924 165.086L309.877 167.956L309.79 167.739L308.83 165.086L307.647 162.173C307.647 162.173 307.56 161.956 307.3 161.956H304.81C304.81 161.956 304.55 161.956 304.68 162.173L308.434 169.739C308.434 169.739 308.564 169.956 308.564 170.217V174.739C308.564 174.739 308.564 175 308.83 175H311.054C311.054 175 311.315 175 311.315 174.739V170.217C311.315 170.217 311.315 169.956 311.45 169.739L315.248 162.173C315.248 162.173 315.378 161.956 315.117 161.956H312.497ZM323.06 169.565C323.06 169.565 322.799 169.565 322.799 169.826V172.521C322.799 172.521 322.799 172.782 322.669 172.826C322.539 172.869 322.056 172.956 321.492 172.956C319.132 172.956 317.602 171.304 317.602 168.521C317.602 165.652 319.175 164.13 321.579 164.13C322.799 164.13 324.063 164.347 324.85 164.652L324.937 162.826C324.937 162.826 324.937 162.565 324.72 162.478C324.286 162.217 323.016 161.956 321.622 161.956C317.472 161.956 315.025 164.652 315.025 168.565C315.025 172.347 317.125 175 321.4 175C322.886 175 324.459 174.652 325.116 174.434C325.116 174.434 325.333 174.347 325.333 174.086V169.782C325.333 169.782 325.333 169.521 325.072 169.521H323.065V169.565H323.06ZM294.416 174.782C294.416 174.782 294.334 175 294.595 175H296.819C296.819 175 297.085 175 297.128 174.782L298.392 169.826H295.902L294.421 174.782H294.416ZM299.092 167.173L299.879 164.13H299.922L300.709 167.173L300.882 167.869H303.459L301.756 162.217C301.756 162.217 301.669 161.956 301.447 161.956H298.571C298.571 161.956 298.306 161.956 298.262 162.217L296.559 167.869H298.962L299.092 167.173ZM305.553 174.782L304.023 169.826H301.403L302.716 174.739L302.759 174.869C302.759 174.869 302.803 175 303.063 175H305.38C305.38 175 305.64 175 305.553 174.782Z" fill="#062A47"/>
<defs>
<filter id="filter0_dd_341_389" x="225" y="33.6084" width="200" height="74" filterUnits="userSpaceOnUse" color-interpolation-filters="sRGB">
<feFlood flood-opacity="0" result="BackgroundImageFix"/>
<feColorMatrix in="SourceAlpha" type="matrix" values="0 0 0 0 0 0 0 0 0 0 0 0 0 0 0 0 0 0 127 0" result="hardAlpha"/>
<feOffset dy="1"/>
<feGaussianBlur stdDeviation="1"/>
<feColorMatrix type="matrix" values="0 0 0 0 0.0745098 0 0 0 0 0.0784314 0 0 0 0 0.0862745 0 0 0 0.16 0"/>
<feBlend mode="normal" in2="BackgroundImageFix" result="effect1_dropShadow_341_389"/>
<feColorMatrix in="SourceAlpha" type="matrix" values="0 0 0 0 0 0 0 0 0 0 0 0 0 0 0 0 0 0 127 0" result="hardAlpha"/>
<feOffset dy="4"/>
<feGaussianBlur stdDeviation="6"/>
<feColorMatrix type="matrix" values="0 0 0 0 0.0745098 0 0 0 0 0.0784314 0 0 0 0 0.0862745 0 0 0 0.08 0"/>
<feBlend mode="normal" in2="effect1_dropShadow_341_389" result="effect2_dropShadow_341_389"/>
<feBlend mode="normal" in="SourceGraphic" in2="effect2_dropShadow_341_389" result="shape"/>
</filter>
<filter id="filter1_dd_341_389" x="34" y="4.6084" width="134" height="80" filterUnits="userSpaceOnUse" color-interpolation-filters="sRGB">
<feFlood flood-opacity="0" result="BackgroundImageFix"/>
<feColorMatrix in="SourceAlpha" type="matrix" values="0 0 0 0 0 0 0 0 0 0 0 0 0 0 0 0 0 0 127 0" result="hardAlpha"/>
<feOffset dy="1"/>
<feGaussianBlur stdDeviation="1"/>
<feColorMatrix type="matrix" values="0 0 0 0 0.0745098 0 0 0 0 0.0784314 0 0 0 0 0.0862745 0 0 0 0.16 0"/>
<feBlend mode="normal" in2="BackgroundImageFix" result="effect1_dropShadow_341_389"/>
<feColorMatrix in="SourceAlpha" type="matrix" values="0 0 0 0 0 0 0 0 0 0 0 0 0 0 0 0 0 0 127 0" result="hardAlpha"/>
<feOffset dy="4"/>
<feGaussianBlur stdDeviation="6"/>
<feColorMatrix type="matrix" values="0 0 0 0 0.0745098 0 0 0 0 0.0784314 0 0 0 0 0.0862745 0 0 0 0.08 0"/>
<feBlend mode="normal" in2="effect1_dropShadow_341_389" result="effect2_dropShadow_341_389"/>
<feBlend mode="normal" in="SourceGraphic" in2="effect2_dropShadow_341_389" result="shape"/>
</filter>
<filter id="filter2_dd_341_389" x="0" y="161.608" width="185" height="74" filterUnits="userSpaceOnUse" color-interpolation-filters="sRGB">
<feFlood flood-opacity="0" result="BackgroundImageFix"/>
<feColorMatrix in="SourceAlpha" type="matrix" values="0 0 0 0 0 0 0 0 0 0 0 0 0 0 0 0 0 0 127 0" result="hardAlpha"/>
<feOffset dy="1"/>
<feGaussianBlur stdDeviation="1"/>
<feColorMatrix type="matrix" values="0 0 0 0 0.0745098 0 0 0 0 0.0784314 0 0 0 0 0.0862745 0 0 0 0.16 0"/>
<feBlend mode="normal" in2="BackgroundImageFix" result="effect1_dropShadow_341_389"/>
<feColorMatrix in="SourceAlpha" type="matrix" values="0 0 0 0 0 0 0 0 0 0 0 0 0 0 0 0 0 0 127 0" result="hardAlpha"/>
<feOffset dy="4"/>
<feGaussianBlur stdDeviation="6"/>
<feColorMatrix type="matrix" values="0 0 0 0 0.0745098 0 0 0 0 0.0784314 0 0 0 0 0.0862745 0 0 0 0.08 0"/>
<feBlend mode="normal" in2="effect1_dropShadow_341_389" result="effect2_dropShadow_341_389"/>
<feBlend mode="normal" in="SourceGraphic" in2="effect2_dropShadow_341_389" result="shape"/>
</filter>
</defs>
</svg>
