<svg width="22" height="18" viewBox="0 0 22 18" fill="none" xmlns="http://www.w3.org/2000/svg">
<path d="M13.2625 17.7535L21.4493 9.56672C21.7739 9.24203 21.7739 8.7318 21.4493 8.43031L13.2625 0.243516C12.9378 -0.0811721 12.4276 -0.0811721 12.1261 0.243516L11.2448 1.12481C10.9201 1.4495 10.9201 1.95973 11.2448 2.26122L16.5094 7.52582H0.811233C0.370584 7.52582 -0.000488281 7.89689 -0.000488281 8.33754V9.56672C-0.000488281 10.0074 0.370584 10.3784 0.811233 10.3784H16.6253L11.2448 15.759C10.9201 16.0837 10.9201 16.5939 11.2448 16.8954L12.1261 17.7767C12.4507 18.0782 12.961 18.0782 13.2625 17.7535Z" fill="#2563EB"/>
</svg>
