<svg width="22" height="18" viewBox="0 0 22 18" fill="none" xmlns="http://www.w3.org/2000/svg">
<path d="M8.4304 17.7535L0.243614 9.56672C-0.0810743 9.24203 -0.0810743 8.7318 0.243614 8.43031L8.4304 0.243516C8.75509 -0.0811721 9.26532 -0.0811721 9.56681 0.243516L10.4481 1.12481C10.7728 1.4495 10.7728 1.95973 10.4481 2.26122L5.18352 7.52582H20.8816C21.3223 7.52582 21.6934 7.89689 21.6934 8.33754V9.56672C21.6934 10.0074 21.3223 10.3784 20.8816 10.3784H5.06756L10.4481 15.759C10.7728 16.0837 10.7728 16.5939 10.4481 16.8954L9.56681 17.7767C9.24212 18.0782 8.7319 18.0782 8.4304 17.7535Z" fill="#2563EB"/>
</svg>
