<svg width="18" height="19" viewBox="0 0 18 19" fill="none" xmlns="http://www.w3.org/2000/svg">
<path fill-rule="evenodd" clip-rule="evenodd" d="M4.56097 17.9357C5.89275 18.0934 7.24553 18.1731 8.58974 18.1731C8.72686 18.1731 8.86441 18.1722 9.00067 18.1705C10.4876 18.18 11.9878 18.0917 13.4657 17.9074C14.5999 17.7609 15.6592 17.224 16.448 16.3961C17.2365 15.5682 17.7215 14.485 17.8137 13.3452C17.9422 11.8506 18.0073 10.4374 18.0073 9.145C18.0073 7.85136 17.9422 6.4373 17.8137 4.94097C17.8137 4.93883 17.8132 4.93669 17.8132 4.93455C17.7074 3.80673 17.2155 2.73719 16.4283 1.92304C15.6407 1.10846 14.5888 0.580974 13.4622 0.436569C11.9869 0.252742 10.4854 0.16447 8.99853 0.173897C7.51206 0.163613 6.01016 0.252313 4.53183 0.436997C3.3963 0.582259 2.33576 1.11831 1.5456 1.94661C0.755448 2.77447 0.269527 3.85901 0.1774 5.00011C0.177185 5.00182 0.177078 5.00364 0.176971 5.00546C0.176864 5.00729 0.176757 5.00911 0.176543 5.01082C0.0912708 6.27361 0 7.74037 0 9.17243C0 10.3812 0.0668462 11.7949 0.198825 13.3717C0.290952 14.5128 0.776873 15.5974 1.56703 16.4252C2.35719 17.2535 3.41773 17.7896 4.55326 17.9349C4.55454 17.9351 4.55582 17.9352 4.5571 17.9353C4.55839 17.9354 4.55968 17.9355 4.56097 17.9357ZM8.98824 16.5349C7.57933 16.5521 6.15585 16.4771 4.75765 16.3117C3.99449 16.2131 3.28189 15.8523 2.75098 15.2961C2.21921 14.7387 1.89183 14.0085 1.8297 13.238C1.70115 11.704 1.63602 10.3362 1.63602 9.17243C1.63602 7.79351 1.72472 6.36146 1.80828 5.12652C1.87169 4.35993 2.19821 3.6319 2.72955 3.07614C3.26132 2.51866 3.97521 2.15743 4.73708 2.06016C6.14385 1.88447 7.57547 1.80006 8.99296 1.80992H9.00367C10.4212 1.80092 11.8528 1.8849 13.257 2.05973C14.0133 2.15657 14.7216 2.5118 15.2516 3.06028C15.7804 3.60748 16.1117 4.32608 16.1836 5.08409C16.3083 6.53286 16.3713 7.89892 16.3713 9.145C16.3713 10.3919 16.3083 11.7593 16.1836 13.2089C16.1832 13.2102 16.1832 13.2119 16.1832 13.2132C16.1215 13.9806 15.7946 14.7104 15.2636 15.2679C14.7327 15.8253 14.0197 16.1866 13.26 16.2847C11.8532 16.4599 10.422 16.5444 9.00367 16.5349H8.98824ZM5.6117 8.66498C5.40216 8.66498 5.19262 8.58485 5.03322 8.42545L3.86084 7.25264C3.54118 6.93298 3.54118 6.41535 3.86084 6.09569C4.1805 5.77603 4.69813 5.77603 5.01779 6.09569L5.62327 6.70116L7.15559 5.22797C7.48125 4.91474 7.99931 4.92502 8.31211 5.25068C8.62492 5.57635 8.61506 6.0944 8.2894 6.40721L6.17903 8.43616C6.02006 8.58914 5.81609 8.66498 5.6117 8.66498ZM13.4867 7.65074H10.6946C10.2429 7.65074 9.87658 7.28437 9.87658 6.83273C9.87658 6.38109 10.2429 6.01472 10.6946 6.01472H13.4867C13.9383 6.01472 14.3047 6.38109 14.3047 6.83273C14.3047 7.28437 13.9383 7.65074 13.4867 7.65074ZM5.03448 13.7932C5.19388 13.9517 5.40256 14.0314 5.61167 14.0314C5.81606 14.0314 6.02003 13.9556 6.179 13.803L8.28937 11.7745C8.61503 11.4617 8.62532 10.9436 8.31208 10.618C7.99928 10.2923 7.48122 10.282 7.15556 10.5952L5.62195 12.0693L5.01648 11.4668C4.69639 11.148 4.17833 11.1493 3.85953 11.4694C3.54072 11.7895 3.54201 12.3075 3.8621 12.6263L5.03448 13.7932ZM13.4867 13.0167H10.6946C10.2429 13.0167 9.87658 12.6504 9.87658 12.1987C9.87658 11.7471 10.2429 11.3807 10.6946 11.3807H13.4867C13.9383 11.3807 14.3047 11.7471 14.3047 12.1987C14.3047 12.6504 13.9383 13.0167 13.4867 13.0167Z" fill="#64748B"/>
</svg>
