<svg width="20" height="18" viewBox="0 0 20 18" fill="none" xmlns="http://www.w3.org/2000/svg">
<path fill-rule="evenodd" clip-rule="evenodd" d="M5.11985 17.7279H14.9141C15.507 17.7279 16.0642 17.4971 16.4845 17.0777C16.9035 16.6582 17.1342 16.1006 17.1342 15.5081V10.8813C17.3104 10.9207 17.4929 10.935 17.6749 10.9225C18.1784 10.888 18.6564 10.6492 18.9864 10.2678C18.9953 10.2571 19.0043 10.2459 19.0132 10.2347L19.5825 9.5063C19.5834 9.50496 19.5844 9.50373 19.5854 9.5025C19.5864 9.50127 19.5874 9.50004 19.5883 9.4987C19.9026 9.09625 20.0448 8.59543 19.9876 8.08789C19.9304 7.57366 19.6764 7.11263 19.2744 6.79067L11.8626 0.819247C11.3421 0.402491 10.6888 0.173096 10.0226 0.173096C9.35628 0.173096 8.70297 0.402491 8.18337 0.819247L0.727357 6.78888C0.323568 7.11218 0.069579 7.57321 0.012342 8.087C-0.0453421 8.60124 0.100433 9.10743 0.423286 9.51301L1.02696 10.2692C1.34891 10.6855 1.83364 10.9404 2.3595 10.9694C2.54374 10.9797 2.72573 10.9618 2.90013 10.918V15.5086C2.90013 16.1011 3.13086 16.6582 3.5503 17.0777C3.96974 17.4971 4.52691 17.7279 5.11985 17.7279ZM14.9141 16.0206H11.7839H5.12029C4.98525 16.0206 4.85334 15.966 4.75809 15.8708C4.66106 15.7742 4.60784 15.6454 4.60784 15.5086V10.1167C4.61053 9.64715 4.3391 9.21206 3.91519 9.00816C3.48994 8.80336 2.97883 8.86328 2.6126 9.16109C2.58488 9.18345 2.55805 9.20804 2.53345 9.23398C2.51288 9.25544 2.48382 9.26662 2.45386 9.26528C2.4239 9.26349 2.39617 9.24873 2.37784 9.22503C2.37605 9.22257 2.37415 9.22023 2.37225 9.21788C2.37035 9.21553 2.36845 9.21318 2.36666 9.21072L1.75852 8.44876C1.71961 8.40002 1.70217 8.33965 1.70933 8.27749C1.71648 8.21578 1.74689 8.16078 1.79518 8.12188L9.25075 2.1518C9.46896 1.97651 9.74352 1.88037 10.023 1.88037C10.3025 1.88037 10.577 1.97695 10.7935 2.15045L18.2052 8.12233C18.2535 8.16123 18.2839 8.21668 18.2911 8.27883C18.2982 8.3392 18.2799 8.4018 18.2419 8.44965C18.2374 8.45502 18.2329 8.46083 18.2289 8.4662L17.686 9.16064C17.6521 9.19507 17.606 9.21654 17.5577 9.21967C17.5049 9.22324 17.4517 9.20536 17.4124 9.17048C17.3802 9.14186 17.3462 9.11637 17.31 9.09312C16.9429 8.85746 16.4738 8.836 16.0852 9.03767C15.698 9.23889 15.4458 9.63508 15.4274 10.0715C15.427 10.0836 15.4265 10.0957 15.4265 10.1077V15.5081C15.4265 15.645 15.3733 15.7737 15.2767 15.8703C15.1797 15.9674 15.0509 16.0206 14.9141 16.0206ZM8.71689 10.2785H11.3234C11.7947 10.2785 12.177 9.89622 12.177 9.42491C12.177 8.9536 11.7947 8.57128 11.3234 8.57128H8.71689C8.24558 8.57128 7.86326 8.9536 7.86326 9.42491C7.86326 9.89622 8.24558 10.2785 8.71689 10.2785Z" fill="#64748B"/>
</svg>
