<svg width="64" height="64" viewBox="0 0 64 64" fill="none" xmlns="http://www.w3.org/2000/svg">
<rect width="64" height="64" rx="32" fill="#EFF6FF"/>
<path fill-rule="evenodd" clip-rule="evenodd" d="M45.935 36.1729C45.5017 35.6666 44.9304 35.3076 44.3001 35.1332V25.2196C44.3001 23.8298 43.7594 22.5214 42.7788 21.5367C41.7981 20.5514 40.4924 20.006 39.0972 20H24.654C23.2594 20 21.949 20.5427 20.963 21.5287C19.9771 22.5147 19.4343 23.8258 19.4343 25.2196V35.1324C18.8031 35.3064 18.2311 35.6655 17.7968 36.1729C17.18 36.8939 16.9016 37.8438 17.0311 38.783L17.2841 41.0748L17.2861 41.0915C17.3856 41.8959 17.7761 42.6348 18.3863 43.1722C18.9924 43.7056 19.7701 43.9987 20.5725 43.9987C20.5765 43.9987 20.5805 43.9987 20.5845 44H43.156C43.965 43.9993 44.7447 43.7043 45.3509 43.1682C45.957 42.6328 46.3462 41.8959 46.4457 41.0928L46.4477 41.0754L46.7007 38.7837C46.8302 37.8445 46.5525 36.8945 45.935 36.1729ZM41.4056 35.0134H41.7961V25.2196C41.7961 24.496 41.5151 23.8158 41.0044 23.3031C40.4937 22.7904 39.8148 22.5067 39.0919 22.5033H24.654C23.9283 22.5033 23.2467 22.7857 22.7334 23.2984C22.2207 23.8117 21.9377 24.4933 21.9377 25.219V35.0134H33.1251L31.0892 32.1876C30.6847 31.6268 30.8122 30.8438 31.3729 30.4399C31.9337 30.036 32.7167 30.1629 33.1206 30.7236L37.6319 36.9853C38.0358 37.5461 37.909 38.3291 37.3482 38.733C37.1266 38.8925 36.8709 38.9693 36.6172 38.9693C36.2281 38.9693 35.8449 38.7884 35.6005 38.4493L34.9296 37.518H20.3022C20.0698 37.522 19.8502 37.6255 19.6987 37.8017C19.5465 37.98 19.4784 38.2156 19.5118 38.4473C19.5138 38.4613 19.5158 38.476 19.5171 38.49L19.7708 40.7911C19.7968 40.9853 19.8916 41.1636 20.0391 41.2937C20.1873 41.4239 20.3776 41.496 20.5752 41.496H20.5779H43.156C43.3535 41.496 43.5445 41.4239 43.6927 41.2924C43.8395 41.1629 43.9343 40.9846 43.9597 40.7904L44.2134 38.4907C44.2147 38.476 44.2167 38.462 44.2187 38.4479C44.2527 38.2156 44.1847 37.9806 44.0318 37.8017C43.8809 37.6255 43.6613 37.522 43.429 37.518H41.4056C40.714 37.518 40.1533 36.9573 40.1533 36.2657C40.1533 35.5741 40.714 35.0134 41.4056 35.0134Z" fill="#2563EB"/>
</svg>
