<svg width="21" height="20" viewBox="0 0 21 20" fill="none" xmlns="http://www.w3.org/2000/svg">
<path d="M20.3252 16.5854V20H18.6992V16.5854C18.6812 16.2545 18.5625 15.9371 18.3591 15.6755C18.1557 15.414 17.8772 15.2209 17.561 15.122L16.2602 14.7967C12.1951 13.6585 7.96748 13.4959 3.90244 14.7967L2.76423 15.2846C2.11382 15.4472 1.62602 15.935 1.62602 16.5854V20H0V16.5854C0 15.122 0.813008 13.9837 2.27642 13.6585L3.57724 13.3333C7.80488 12.0325 12.5203 12.0325 16.9106 13.3333L18.2114 13.6585C18.8135 13.883 19.3355 14.2808 19.7118 14.8017C20.088 15.3226 20.3014 15.9433 20.3252 16.5854ZM4.71545 5.36585C4.71545 2.43902 7.15447 0 10.0813 0C13.0081 0 15.4472 2.43902 15.4472 5.36585C15.4472 8.29268 13.1707 10.7317 10.0813 10.7317C8.65819 10.7317 7.29336 10.1664 6.28707 9.16009C5.28078 8.15379 4.71545 6.78897 4.71545 5.36585ZM6.34146 5.36585C6.34146 7.47967 7.96748 9.10569 10.0813 9.10569C12.1951 9.10569 13.8211 7.47967 13.8211 5.36585C13.8211 3.25203 12.1951 1.62602 10.0813 1.62602C7.96748 1.62602 6.34146 3.25203 6.34146 5.36585Z" fill="#3B82F6"/>
</svg>
