<svg width="21" height="21" viewBox="0 0 21 21" fill="none" xmlns="http://www.w3.org/2000/svg">
<path fill-rule="evenodd" clip-rule="evenodd" d="M10.0526 10.5817C7.78431 10.5746 6.41905 10.1691 5.78298 9.91371H5.78248V8.01685C5.78248 7.96263 6.00485 7.58604 6.98984 7.22438C7.36394 7.08708 7.61218 6.73139 7.61218 6.33292V3.4844C7.61218 3.28143 7.67088 3.08443 7.78231 2.9143C7.89226 2.74566 8.04747 2.61333 8.23153 2.53125C9.39611 2.03427 10.7249 2.04621 11.8805 2.56408C12.0476 2.64766 12.1879 2.776 12.2864 2.9347C12.3869 3.09687 12.4391 3.28342 12.4371 3.47495V3.4839V6.26327C12.4371 6.67418 12.7013 7.03883 13.0918 7.16618C14.1494 7.51192 14.4822 7.93477 14.4822 8.02382V9.91434C13.8279 10.1719 12.4247 10.5818 10.114 10.5818C10.0934 10.5818 10.073 10.5818 10.0526 10.5817ZM16.3816 9.90986V8.02382C16.3816 7.04529 15.6453 6.18666 14.3365 5.61009V3.48888C14.341 2.93917 14.1907 2.40191 13.9012 1.93478C13.6112 1.46616 13.1958 1.09157 12.7003 0.850792L12.6884 0.845321L12.6764 0.839848C11.0323 0.0966274 9.13792 0.0777235 7.47936 0.788111L7.47488 0.790101L7.4704 0.792091C6.94656 1.02292 6.50481 1.39801 6.1924 1.87658C5.87899 2.35564 5.71383 2.91181 5.71334 3.4844V5.70411C4.13785 6.46773 3.88364 7.45869 3.88364 8.01735V9.70016C2.22928 11.0904 0.951717 12.8807 0.175494 14.9018C-0.00757552 15.363 -0.0483681 15.8635 0.0575931 16.3485C0.164052 16.836 0.410797 17.2758 0.771961 17.6195C0.77793 17.6255 0.784397 17.6315 0.790864 17.6374C2.1221 18.8378 4.80097 20.2686 10.006 20.2686C10.0252 20.2686 10.0444 20.2685 10.0636 20.2685C10.065 20.2685 10.0663 20.2685 10.0677 20.2686H10.0821C10.088 20.2686 10.0939 20.2685 10.0998 20.2684C12.4383 20.2605 14.4733 19.9567 16.1508 19.3661C17.4133 18.9214 18.4506 18.3254 19.2336 17.5951C19.2356 17.5937 19.2376 17.5917 19.2396 17.5897C19.6027 17.2454 19.8504 16.8057 19.9569 16.3176C20.0634 15.8291 20.0211 15.3262 19.834 14.862L19.831 14.8551C19.0911 12.9589 17.9033 11.2579 16.3816 9.90986ZM11.2764 12.4491C13.4201 12.3297 14.7503 11.8975 15.4212 11.608C16.5779 12.7128 17.4854 14.0657 18.066 15.5605C18.0674 15.5643 18.0689 15.5683 18.0705 15.5722C18.0718 15.5755 18.0731 15.5787 18.0745 15.5819C18.1148 15.6878 18.1237 15.8018 18.0993 15.9127C18.0745 16.0261 18.0173 16.1291 17.9327 16.2097C17.0673 17.0147 14.8986 18.3578 10.0671 18.3691C9.38278 18.3523 8.71658 18.1034 8.18825 17.6678C7.65198 17.2255 7.27887 16.6077 7.1366 15.9276C7.02964 15.4142 6.5262 15.0849 6.01281 15.1924C5.49942 15.2993 5.1701 15.8028 5.27755 16.3162C5.40192 16.9116 5.63599 17.4778 5.96209 17.9855C3.8379 17.5307 2.66703 16.7678 2.07434 16.2371C1.99325 16.157 1.93753 16.0555 1.91266 15.9445C1.88729 15.8291 1.89724 15.7102 1.94102 15.6003L1.94549 15.5883C2.53599 14.0497 3.46726 12.6677 4.66417 11.5459C5.37704 11.8762 7.09381 12.4816 10.113 12.4816C10.5247 12.4816 10.9123 12.47 11.2764 12.4491Z" fill="#64748B"/>
</svg>
