<svg width="22" height="22" viewBox="0 0 22 22" fill="none" xmlns="http://www.w3.org/2000/svg">
<path d="M22 17.952V21.648H20.24V17.952C20.2205 17.5939 20.092 17.2503 19.8719 16.9672C19.6517 16.6841 19.3503 16.4751 19.008 16.368L17.6 16.016C13.2 14.784 8.624 14.608 4.224 16.016L2.992 16.544C2.288 16.72 1.76 17.248 1.76 17.952V21.648H0V17.952C0 16.368 0.88 15.136 2.464 14.784L3.872 14.432C8.448 13.024 13.552 13.024 18.304 14.432L19.712 14.784C20.3637 15.0269 20.9288 15.4575 21.336 16.0213C21.7432 16.5852 21.9743 17.257 22 17.952ZM5.104 5.808C5.104 2.64 7.744 0 10.912 0C14.08 0 16.72 2.64 16.72 5.808C16.72 8.976 14.256 11.616 10.912 11.616C9.37162 11.616 7.89433 11.0041 6.80512 9.91488C5.71591 8.82566 5.104 7.34838 5.104 5.808ZM6.864 5.808C6.864 8.096 8.624 9.856 10.912 9.856C13.2 9.856 14.96 8.096 14.96 5.808C14.96 3.52 13.2 1.76 10.912 1.76C8.624 1.76 6.864 3.52 6.864 5.808Z" fill="black"/>
</svg>
