<svg width="60" height="60" viewBox="0 0 60 60" fill="none" xmlns="http://www.w3.org/2000/svg">
<rect width="60" height="60" rx="30" fill="white"/>
<path fill-rule="evenodd" clip-rule="evenodd" d="M24.7762 38.8626C26.1084 40.4115 28.0439 41.3 30.0868 41.3C32.1301 41.3 34.0657 40.4115 35.3967 38.8638L41.4987 31.7836C42.3465 30.7907 42.8568 29.5782 42.9742 28.2777C43.0916 26.9771 42.8066 25.6929 42.1506 24.5663L40.7141 22.0877L40.7059 22.0741L40.6977 22.0606C39.5727 20.1707 37.5135 19 35.3138 19H35.2985H24.3929C23.2273 19.0006 22.0876 19.3251 21.097 19.9387C20.1063 20.5517 19.3082 21.4272 18.79 22.467L17.6548 24.7226C17.6543 24.7235 17.6538 24.7245 17.6534 24.7254C17.653 24.7264 17.6526 24.7274 17.652 24.7283C17.1028 25.8358 16.895 27.0697 17.0497 28.2952C17.2044 29.5212 17.713 30.6637 18.5196 31.6001L24.7643 38.8485C24.7683 38.853 24.7723 38.8581 24.7762 38.8626ZM30.0873 39.1443C28.6784 39.1443 27.3434 38.5347 26.4216 37.4701L26.4098 37.4565L20.152 30.1935C19.6226 29.5793 19.2895 28.8297 19.1879 28.0253C19.0863 27.2227 19.2224 26.4149 19.5814 25.689L20.7177 23.4317C21.0586 22.747 21.5824 22.1729 22.2321 21.7704C22.8824 21.368 23.6298 21.1552 24.3941 21.1546H35.2997H35.3149C36.7628 21.1546 38.1181 21.9285 38.8541 23.1754L38.8572 23.1805L38.8603 23.1856L40.2879 25.6484C40.7186 26.3889 40.9054 27.2311 40.8287 28.084C40.7519 28.937 40.4172 29.7323 39.864 30.3798L33.7637 37.4571C32.8419 38.5296 31.5019 39.1443 30.0873 39.1443ZM23.395 29.3738H25.4703L27.488 34.4151C27.6568 34.8362 28.0609 35.0925 28.4888 35.0925C28.622 35.0925 28.7575 35.0677 28.8885 35.0152C29.4411 34.7939 29.7098 34.1668 29.4885 33.6141L27.7912 29.3738H32.1946L30.4976 33.6142C30.2763 34.1668 30.545 34.7939 31.0976 35.0152C31.2291 35.0677 31.3646 35.0925 31.4978 35.0925C31.9257 35.0925 32.3304 34.8363 32.4981 34.4152L34.5158 29.3738H36.585C37.18 29.3738 37.6626 28.8912 37.6626 28.2963C37.6626 27.7013 37.18 27.2187 36.585 27.2187H34.6371L33.9527 24.4195C33.811 23.8415 33.2279 23.487 32.6499 23.6287C32.0719 23.7704 31.718 24.3534 31.8591 24.9315L32.4184 27.2187H27.5232L28.0124 24.8981C28.1354 24.3156 27.7629 23.7438 27.1804 23.6213C26.5984 23.4982 26.026 23.8708 25.9035 24.4533L25.3207 27.2187H23.395C22.8001 27.2187 22.3174 27.7013 22.3174 28.2963C22.3174 28.8912 22.8001 29.3738 23.395 29.3738Z" fill="#2563EB"/>
</svg>
