<svg width="16" height="21" viewBox="0 0 16 21" fill="none" xmlns="http://www.w3.org/2000/svg">
<path d="M7.85274 0.271043C7.66723 0.282567 7.49102 0.355803 7.35161 0.479226L5.47796 2.16403C4.73668 1.76104 3.90172 1.52014 2.99909 1.52014H2.29052C2.26227 1.51866 2.23402 1.51866 2.20576 1.52014C1.99981 1.54133 1.80947 1.63799 1.67081 1.7919C1.53251 1.9458 1.4563 2.14581 1.45742 2.35288V5.47563C1.45742 8.6192 3.97755 11.0334 7.07837 11.0966V12.7427C6.47167 12.3576 5.7512 12.1375 4.99654 12.1375H0.832868C0.804615 12.136 0.776361 12.136 0.748108 12.1375C0.542155 12.1587 0.351444 12.2557 0.213151 12.4096C0.0748572 12.5635 -0.00098107 12.7632 0.000134198 12.9702C0.000134198 14.2468 0.345867 15.2406 0.969303 15.9305C1.59311 16.6201 2.41023 16.9603 3.20728 17.186C4.64411 17.5934 6.09508 17.7443 7.078 18.344V19.4239C7.07465 19.647 7.1609 19.8619 7.31778 20.0206C7.47429 20.1793 7.68805 20.2686 7.91073 20.2686C8.13342 20.2686 8.34718 20.1793 8.50369 20.0206C8.6602 19.8619 8.74644 19.647 8.74347 19.4239V18.344C9.72676 17.744 11.1777 17.5934 12.6142 17.186C13.4116 16.9599 14.2287 16.6198 14.8522 15.9305C15.4756 15.2409 15.8213 14.2468 15.8213 12.9702C15.8213 12.7494 15.7336 12.5375 15.5775 12.3814C15.4213 12.2252 15.2094 12.1375 14.9886 12.1375H10.8249C10.0703 12.1375 9.3498 12.3576 8.7431 12.7427V11.0966C11.8439 11.0334 14.3641 8.6192 14.3641 5.47563V2.35288C14.3641 2.13205 14.2763 1.92015 14.1202 1.76402C13.964 1.60788 13.7521 1.52014 13.5313 1.52014H12.8224C11.9198 1.52014 11.0848 1.76104 10.3435 2.16403L8.46986 0.479226C8.30071 0.328665 8.07765 0.25357 7.85162 0.271043H7.85274ZM7.91111 2.22276L8.98474 3.19193C8.56688 3.61648 8.20219 4.1005 7.91111 4.62988C7.62039 4.1005 7.2557 3.61648 6.83747 3.19193L7.91111 2.22276ZM3.12289 3.19862C5.27387 3.28301 7.07837 5.50017 7.07837 7.76565H8.74384C8.74384 5.50017 10.5487 3.28301 12.6993 3.19862V5.47563C12.6993 7.78535 10.9524 9.43112 8.62005 9.43112H7.2018C4.86977 9.43112 3.12251 7.78498 3.12251 5.47563L3.12289 3.19862ZM1.77007 13.803H4.99691C6.01961 13.803 6.90216 14.5093 7.07874 15.4361V16.5097C5.87648 15.9937 4.61549 15.8495 3.66305 15.5796C3.00281 15.3922 2.51878 15.158 2.20576 14.8119C2.00464 14.5885 1.86263 14.2446 1.77007 13.803ZM10.826 13.803H14.0529C13.9603 14.2446 13.8183 14.5889 13.6172 14.8115C13.3038 15.158 12.8198 15.3922 12.1599 15.5792C11.2078 15.8491 9.94684 15.9934 8.74421 16.5094V15.4357C8.9208 14.5093 9.80335 13.803 10.826 13.803Z" fill="#64748B"/>
</svg>
