<svg width="18" height="17" viewBox="0 0 18 17" fill="none" xmlns="http://www.w3.org/2000/svg">
<path fill-rule="evenodd" clip-rule="evenodd" d="M0.667019 16.2804C1.0917 16.7051 1.67773 16.9473 2.27827 16.9473H2.29893H15.7222C16.3306 16.9473 16.9026 16.7104 17.3326 16.2804C17.763 15.8505 17.9999 15.2785 17.9999 14.67V5.16302C18.0052 4.56029 17.766 3.96943 17.3422 3.54079C16.9175 3.11083 16.3271 2.86419 15.7226 2.86419H15.7064H14.2173V2.49183C14.2151 1.89481 13.9812 1.33296 13.5588 0.910032C13.1367 0.487986 12.5749 0.254103 11.9739 0.251465H6.04283C5.44229 0.251465 4.87737 0.485349 4.45224 0.910032C4.02756 1.33516 3.79368 1.89964 3.79368 2.50062V2.86419H2.29761C1.69532 2.8598 1.10445 3.09852 0.676691 3.52188C0.246292 3.947 9.85457e-05 4.53743 9.85457e-05 5.14148V14.6494C-0.00561666 15.257 0.237499 15.8509 0.667019 16.2804ZM1.8571 4.71592C1.96833 4.60601 2.12132 4.54314 2.27783 4.54314C2.27994 4.54297 2.28213 4.54293 2.28432 4.5429C2.28761 4.54284 2.29093 4.54279 2.29409 4.54226H4.63293C5.0963 4.54226 5.47219 4.16638 5.47219 3.70301V2.50018C5.47219 2.34763 5.53154 2.20431 5.63925 2.0966C5.74696 1.98889 5.89028 1.92954 6.04283 1.92954H11.9704C12.122 1.93042 12.2649 1.98977 12.3718 2.0966C12.479 2.20431 12.5384 2.34675 12.5388 2.4949V3.70389C12.5388 4.16726 12.9147 4.54314 13.3781 4.54314H15.7231H15.7332C15.8888 4.54578 16.0396 4.60997 16.1491 4.72076C16.2607 4.83374 16.3236 4.98981 16.3218 5.14852V5.15819V14.6705C16.3218 14.8305 16.2599 14.9804 16.1464 15.0939C16.0334 15.2068 15.8831 15.2693 15.7231 15.2693H2.29453H2.28486C2.12528 15.2693 1.96789 15.2068 1.85446 15.0939C1.74104 14.9809 1.67729 14.8239 1.67905 14.6639V14.6538V5.14148C1.67905 4.98278 1.74368 4.82803 1.8571 4.71592ZM4.71164 9.90829C4.71164 12.2779 6.63898 14.2057 9.00859 14.2057C11.3778 14.2057 13.3055 12.2779 13.3055 9.90829C13.3055 7.53912 11.3782 5.61133 9.00859 5.61133C6.63942 5.61133 4.71164 7.53912 4.71164 9.90829ZM6.39015 9.90873C6.39015 8.46498 7.56484 7.29029 9.00859 7.29029C10.4523 7.29029 11.627 8.46498 11.627 9.90873C11.627 11.3525 10.4523 12.5272 9.00859 12.5272C7.56484 12.5272 6.39015 11.3525 6.39015 9.90873Z" fill="#64748B"/>
</svg>
