<svg width="60" height="60" viewBox="0 0 60 60" fill="none" xmlns="http://www.w3.org/2000/svg">
<rect width="60" height="60" rx="30" fill="white"/>
<mask id="path-2-outside-1_332_374" maskUnits="userSpaceOnUse" x="18" y="16" width="24" height="28" fill="black">
<rect fill="white" x="18" y="16" width="24" height="28"/>
<path fill-rule="evenodd" clip-rule="evenodd" d="M37.778 20.2216C42.074 24.5171 42.074 31.4821 37.778 35.7775L30.8063 42.7497C30.3609 43.1951 29.6387 43.1951 29.1933 42.7497L22.2216 35.778C17.9261 31.4821 17.9261 24.5171 22.2216 20.2216C26.5176 15.9261 33.482 15.9261 37.778 20.2216ZM23.6883 21.6878C20.2027 25.1734 20.2027 30.8253 23.6883 34.3109L30.0003 40.6224L36.3114 34.3109C39.797 30.8253 39.797 25.1734 36.3114 21.6878C32.8253 18.2022 27.1739 18.2022 23.6883 21.6878ZM33.4564 31.457C31.5473 33.3662 28.4517 33.3662 26.5425 31.457C24.6334 29.5479 24.6334 26.4523 26.5425 24.5431C28.4517 22.634 31.5473 22.634 33.4564 24.5431C35.3656 26.4523 35.3656 29.5479 33.4564 31.457ZM31.9898 29.9904C30.8905 31.0896 29.1085 31.0896 28.0092 29.9904C26.9099 28.8911 26.9099 27.1091 28.0092 26.0098C29.1085 24.9105 30.8905 24.9105 31.9898 26.0098C33.0891 27.1091 33.0891 28.8911 31.9898 29.9904Z"/>
</mask>
<path fill-rule="evenodd" clip-rule="evenodd" d="M37.778 20.2216C42.074 24.5171 42.074 31.4821 37.778 35.7775L30.8063 42.7497C30.3609 43.1951 29.6387 43.1951 29.1933 42.7497L22.2216 35.778C17.9261 31.4821 17.9261 24.5171 22.2216 20.2216C26.5176 15.9261 33.482 15.9261 37.778 20.2216ZM23.6883 21.6878C20.2027 25.1734 20.2027 30.8253 23.6883 34.3109L30.0003 40.6224L36.3114 34.3109C39.797 30.8253 39.797 25.1734 36.3114 21.6878C32.8253 18.2022 27.1739 18.2022 23.6883 21.6878ZM33.4564 31.457C31.5473 33.3662 28.4517 33.3662 26.5425 31.457C24.6334 29.5479 24.6334 26.4523 26.5425 24.5431C28.4517 22.634 31.5473 22.634 33.4564 24.5431C35.3656 26.4523 35.3656 29.5479 33.4564 31.457ZM31.9898 29.9904C30.8905 31.0896 29.1085 31.0896 28.0092 29.9904C26.9099 28.8911 26.9099 27.1091 28.0092 26.0098C29.1085 24.9105 30.8905 24.9105 31.9898 26.0098C33.0891 27.1091 33.0891 28.8911 31.9898 29.9904Z" fill="#2563EB"/>
<path d="M37.778 35.7775L37.6366 35.6361L37.6366 35.6361L37.778 35.7775ZM37.778 20.2216L37.9194 20.0802L37.778 20.2216ZM30.8063 42.7497L30.9478 42.8911L30.9478 42.8911L30.8063 42.7497ZM29.1933 42.7497L29.0519 42.8911L29.1933 42.7497ZM22.2216 35.778L22.0802 35.9194L22.0802 35.9194L22.2216 35.778ZM22.2216 20.2216L22.0802 20.0802L22.0802 20.0802L22.2216 20.2216ZM23.6883 34.3109L23.5469 34.4523L23.5469 34.4523L23.6883 34.3109ZM23.6883 21.6878L23.8297 21.8292L23.6883 21.6878ZM30.0003 40.6224L29.8589 40.7639L30.0003 40.9053L30.1417 40.7638L30.0003 40.6224ZM36.3114 34.3109L36.1699 34.1695L36.1699 34.1695L36.3114 34.3109ZM36.3114 21.6878L36.4528 21.5464L36.4528 21.5464L36.3114 21.6878ZM26.5425 31.457L26.4011 31.5984L26.5425 31.457ZM33.4564 31.457L33.5979 31.5984L33.4564 31.457ZM33.4564 24.5431L33.5979 24.4017L33.4564 24.5431ZM28.0092 29.9904L27.8678 30.1318L28.0092 29.9904ZM28.0092 26.0098L27.8678 25.8684L28.0092 26.0098ZM31.9898 26.0098L31.8484 26.1512L31.9898 26.0098ZM37.9194 35.919C42.2935 31.5454 42.2935 24.4538 37.9194 20.0802L37.6366 20.363C41.8545 24.5804 41.8545 31.4187 37.6366 35.6361L37.9194 35.919ZM30.9478 42.8911L37.9194 35.919L37.6366 35.6361L30.6649 42.6083L30.9478 42.8911ZM29.0519 42.8911C29.5754 43.4146 30.4243 43.4146 30.9478 42.8911L30.6649 42.6083C30.2976 42.9756 29.702 42.9756 29.3347 42.6083L29.0519 42.8911ZM22.0802 35.9194L29.0519 42.8911L29.3347 42.6083L22.363 35.6366L22.0802 35.9194ZM22.0802 20.0802C17.7066 24.4538 17.7066 31.5454 22.0802 35.9194L22.363 35.6366C18.1456 31.4187 18.1457 24.5804 22.363 20.363L22.0802 20.0802ZM37.9194 20.0802C33.5454 15.7066 26.4543 15.7066 22.0802 20.0802L22.363 20.363C26.5809 16.1457 33.4187 16.1457 37.6366 20.363L37.9194 20.0802ZM23.8297 34.1695C20.4222 30.762 20.4222 25.2367 23.8297 21.8292L23.5469 21.5464C19.9831 25.1101 19.9831 30.8886 23.5469 34.4523L23.8297 34.1695ZM30.1417 40.481L23.8297 34.1695L23.5469 34.4523L29.8589 40.7639L30.1417 40.481ZM36.1699 34.1695L29.8589 40.481L30.1417 40.7638L36.4528 34.4523L36.1699 34.1695ZM36.1699 21.8292C39.5774 25.2367 39.5774 30.762 36.1699 34.1695L36.4528 34.4523C40.0165 30.8886 40.0165 25.1101 36.4528 21.5464L36.1699 21.8292ZM23.8297 21.8292C27.2372 18.4217 32.762 18.4217 36.17 21.8292L36.4528 21.5464C32.8886 17.9827 27.1106 17.9827 23.5469 21.5464L23.8297 21.8292ZM26.4011 31.5984C28.3884 33.5857 31.6106 33.5857 33.5979 31.5984L33.315 31.3156C31.484 33.1467 28.515 33.1467 26.684 31.3156L26.4011 31.5984ZM26.4011 24.4017C24.4139 26.389 24.4139 29.6112 26.4011 31.5984L26.684 31.3156C24.8529 29.4846 24.8529 26.5156 26.684 24.6845L26.4011 24.4017ZM33.5979 24.4017C31.6106 22.4144 28.3884 22.4144 26.4011 24.4017L26.684 24.6845C28.515 22.8535 31.484 22.8535 33.315 24.6845L33.5979 24.4017ZM33.5979 31.5984C35.5851 29.6112 35.5851 26.389 33.5979 24.4017L33.315 24.6845C35.1461 26.5156 35.1461 29.4846 33.315 31.3156L33.5979 31.5984ZM27.8678 30.1318C29.0452 31.3092 30.9538 31.3092 32.1312 30.1318L31.8484 29.8489C30.8272 30.8701 29.1718 30.8701 28.1506 29.8489L27.8678 30.1318ZM27.8678 25.8684C26.6904 27.0457 26.6904 28.9544 27.8678 30.1318L28.1506 29.8489C27.1295 28.8278 27.1295 27.1724 28.1506 26.1512L27.8678 25.8684ZM32.1312 25.8684C30.9538 24.691 29.0452 24.691 27.8678 25.8684L28.1506 26.1512C29.1718 25.13 30.8272 25.13 31.8484 26.1512L32.1312 25.8684ZM32.1312 30.1318C33.3086 28.9544 33.3086 27.0457 32.1312 25.8684L31.8484 26.1512C32.8695 27.1724 32.8695 28.8278 31.8484 29.8489L32.1312 30.1318Z" fill="#2563EB" mask="url(#path-2-outside-1_332_374)"/>
</svg>
