<svg width="20" height="18" viewBox="0 0 20 18" fill="none" xmlns="http://www.w3.org/2000/svg">
<path fill-rule="evenodd" clip-rule="evenodd" d="M4.65533 17.4673C5.05498 17.8113 5.56405 18 6.0912 18C6.09444 18 6.09769 18 6.10093 17.9995H13.1764H13.1838C13.7059 17.9995 14.2122 17.8132 14.6099 17.4747C15.0101 17.1349 15.2753 16.662 15.3578 16.1432L15.6017 14.6007C16.5043 14.2492 17.3801 13.8213 18.2096 13.3266C18.7618 12.9997 19.1429 12.4494 19.2551 11.817C19.3668 11.1851 19.198 10.5374 18.7919 10.0404L18.7836 10.0302L11.3562 0.824336C10.9361 0.300433 10.3102 0 9.6389 0C8.96756 0 8.34166 0.300433 7.92347 0.822017L0.482193 10.0446C0.481497 10.0453 0.480918 10.0461 0.480339 10.0469C0.479759 10.0477 0.479179 10.0485 0.478483 10.0492C0.0862519 10.5425 -0.0760189 11.1809 0.033398 11.8022C0.143278 12.4225 0.514183 12.9673 1.05107 13.2965L1.06034 13.302C1.89117 13.7977 2.76697 14.2256 3.67012 14.5775L3.91352 16.1214C3.99095 16.6443 4.25429 17.1223 4.65533 17.4673ZM4.76011 13.0948C3.79252 12.7512 2.85459 12.3108 1.97323 11.7855C1.86984 11.7206 1.79844 11.6149 1.77711 11.4948C1.75579 11.3733 1.78731 11.2486 1.86381 11.1522L8.75383 2.6119V4.62333C8.75383 5.11199 9.15024 5.5084 9.6389 5.5084C10.128 5.5084 10.524 5.11199 10.524 4.62286V2.61205L17.4168 11.1573C17.42 11.1614 17.4237 11.1656 17.427 11.1698C17.5021 11.2658 17.5327 11.3891 17.5113 11.5092C17.4896 11.6334 17.4149 11.741 17.3046 11.8064C16.4209 12.333 15.4811 12.7749 14.5117 13.1189C14.2061 13.2274 13.984 13.4944 13.9335 13.8148L13.609 15.8673C13.5927 15.9688 13.5408 16.0611 13.4625 16.1279C13.3846 16.1937 13.2858 16.2303 13.1806 16.2303H13.1792H6.09862H6.0912C5.98781 16.2303 5.88813 16.1932 5.80977 16.126C5.73096 16.0583 5.67949 15.9642 5.66466 15.8617C5.66373 15.858 5.66327 15.8543 5.6628 15.8506L5.33826 13.7912C5.28773 13.4708 5.06611 13.2033 4.76011 13.0948Z" fill="#64748B"/>
</svg>
