<svg width="50" height="50" viewBox="0 0 50 50" fill="none" xmlns="http://www.w3.org/2000/svg">
<rect x="0.500061" y="0.5" width="49" height="49" rx="24.5" fill="white" stroke="#E2E8F0"/>
<path fill-rule="evenodd" clip-rule="evenodd" d="M18.4154 34H33.0746C33.5893 34 34.0059 33.5829 34.0064 33.0687C34.0064 32.5545 33.5893 32.1374 33.0751 32.1374H18.4154C18.2701 32.1374 18.1276 32.0783 18.0247 31.9754C17.9217 31.8725 17.8627 31.73 17.8627 31.5846V16.9313C17.8627 16.4171 17.4456 16 16.9314 16C16.4172 16 16.0001 16.4171 16.0001 16.9313V31.5846C16.0001 32.2296 16.2513 32.836 16.7075 33.2926C17.1641 33.7488 17.7705 34 18.4154 34ZM19.1453 29.3158C19.2941 29.6739 19.6405 29.8895 20.0054 29.8895C20.1244 29.8895 20.2459 29.8661 20.363 29.8164C21.8324 29.2046 22.3593 27.5439 22.8237 26.0789C23.3082 24.5509 23.6848 23.5371 24.4751 23.3747C24.8332 23.3015 25.1757 23.7435 25.808 24.7612C26.1417 25.2983 26.4866 25.8535 26.9271 26.2735C27.7213 27.0312 28.5219 27.0317 29.0537 26.899C30.4324 26.5546 31.1603 25.0217 31.9306 23.3991L31.9308 23.3987C32.4503 22.3046 32.9874 21.1734 33.6508 20.5929C34.0376 20.2544 34.0767 19.6655 33.7381 19.2786C33.3995 18.8918 32.8107 18.8527 32.4238 19.1913C31.4702 20.0259 30.8494 21.3331 30.2487 22.5978L30.2475 22.6005L30.2454 22.6048C29.7462 23.6559 29.1261 24.9614 28.6014 25.0924C28.5214 25.1124 28.4312 25.1349 28.2121 24.9261C27.9441 24.6707 27.6639 24.2198 27.3924 23.7829L27.3901 23.7791L27.3867 23.7738C27.0497 23.2315 26.7012 22.6707 26.2505 22.238C25.4513 21.4706 24.6415 21.4408 24.1014 21.5511C23.2179 21.7331 22.5008 22.2873 21.969 23.1986C21.5621 23.8957 21.3006 24.7197 21.0479 25.5169C20.6894 26.6487 20.3181 27.8186 19.6468 28.0981C19.1721 28.2957 18.9477 28.8411 19.1453 29.3158Z" fill="black"/>
</svg>
