<svg width="20" height="20" viewBox="0 0 20 20" fill="none" xmlns="http://www.w3.org/2000/svg">
<path fill-rule="evenodd" clip-rule="evenodd" d="M12.0848 1.89584L10.9637 4.62711H4.64162H4.63577C4.12823 4.62711 3.63958 4.84038 3.29356 5.2125C2.95115 5.58146 2.77432 6.07866 2.80761 6.58036L2.80896 6.5997L2.97503 8.78362L2.27847 9.16566C1.40106 9.64666 0.705879 10.3603 0.320718 11.1756C-0.0981885 12.0634 -0.107188 13.0051 0.296421 13.7601C0.297769 13.7633 0.299566 13.7664 0.301364 13.7696L0.30137 13.7696C0.634336 14.3739 1.21973 14.8229 1.95 15.0335C2.27667 15.1275 2.62178 15.1739 2.97544 15.1739C3.13515 15.1739 3.29659 15.1644 3.45881 15.1457L3.48929 15.5466C3.54779 16.365 3.88975 17.1457 4.45219 17.7437C5.01464 18.3417 5.77281 18.7305 6.58362 18.8389C8.15576 19.054 9.7558 19.166 11.3405 19.1732H11.3446C11.3464 19.1732 11.3477 19.1732 11.3491 19.1723C12.982 19.1642 14.6306 19.0481 16.2486 18.8267C17.0572 18.7161 17.8109 18.3277 18.3711 17.7338C18.9308 17.1399 19.2737 16.3646 19.3367 15.5479L19.9954 6.59745L19.9956 6.5934L19.9958 6.58935C20.03 6.08541 19.8523 5.58416 19.5085 5.2143C19.1634 4.84263 18.6748 4.62891 18.165 4.62711H17.5638L17.7344 4.2131C18.0422 3.45897 18.0386 2.62971 17.7245 1.87874C17.4105 1.12687 16.8228 0.541926 16.0692 0.231008C15.3146 -0.0794597 14.4844 -0.0767599 13.7317 0.237758C12.9793 0.552275 12.3944 1.14126 12.0848 1.89584ZM5.14204 14.6172C5.17725 14.5988 5.21232 14.5799 5.24726 14.5606L10.1149 11.8807C10.5306 11.6521 10.6818 11.1297 10.4532 10.714C10.2246 10.2982 9.70225 10.147 9.28649 10.3756L4.99884 12.7361L4.52284 6.48362L4.52239 6.47618L4.52194 6.46877C4.51969 6.43727 4.53049 6.40577 4.55208 6.38283C4.57368 6.35943 4.60428 6.34593 4.63847 6.34593H4.63892H18.1618C18.1951 6.34593 18.2271 6.35988 18.2496 6.38418C18.2721 6.40847 18.2838 6.44132 18.2815 6.47462V6.47507L17.6232 15.4192C17.5904 15.8431 17.4118 16.2472 17.1206 16.5563C16.8291 16.8658 16.4363 17.0679 16.0156 17.1255C14.4727 17.3365 12.9014 17.4472 11.3441 17.4553C9.83589 17.4481 8.3128 17.341 6.814 17.1363C6.39059 17.08 5.99643 16.8775 5.70396 16.5666C5.41149 16.2557 5.23376 15.8499 5.20317 15.4201L5.14204 14.6172ZM3.32836 13.4301C3.00726 13.4759 2.69805 13.4616 2.42605 13.3831C2.22312 13.3241 1.9518 13.2008 1.80871 12.9453C1.5068 12.3698 1.96305 11.2975 3.10458 10.6721L3.11807 10.6647L3.32836 13.4301ZM16.1452 3.56111L15.7057 4.62711H12.8203L13.6741 2.54782C13.8095 2.218 14.0651 1.96063 14.394 1.82294C14.7234 1.68526 15.086 1.68436 15.4149 1.81934C15.7448 1.95523 16.0021 2.2117 16.1398 2.54107C16.2775 2.87044 16.2788 3.23355 16.1452 3.56111Z" fill="#64748B"/>
</svg>
