<svg width="64" height="64" viewBox="0 0 64 64" fill="none" xmlns="http://www.w3.org/2000/svg">
<rect width="64" height="64" rx="32" fill="#EFF6FF"/>
<path fill-rule="evenodd" clip-rule="evenodd" d="M21.7142 44H42.7811C43.5088 44 44.1919 43.7167 44.7064 43.2029C45.2208 42.6885 45.5041 42.0047 45.5041 41.2777V40.52C45.499 39.2009 44.8655 37.9416 43.808 37.1521L42.4895 36.1647V29.8924L43.8462 28.1212L43.866 28.0957C44.4562 27.3114 44.7815 26.3385 44.7828 25.3555V22.1143C44.7828 20.9486 43.8341 20 42.6678 20H21.8683C20.7019 20 19.7533 20.9486 19.7533 22.1143V25.3568C19.7539 26.3392 20.0793 27.312 20.6701 28.0963L20.6764 28.1046L22.0465 29.8924V36.1564L20.6962 37.1451C20.6924 37.1477 20.6879 37.1509 20.6841 37.154C19.619 37.955 18.9899 39.2283 19.0001 40.5608V41.3101V41.3362C19.0154 42.0499 19.3038 42.7184 19.8125 43.2182C20.3212 43.7186 20.9941 43.9962 21.7142 44ZM21.5168 41.4852C21.4646 41.4336 21.4341 41.3649 21.4302 41.2917V40.5557V40.5442C21.4251 39.9795 21.6906 39.4403 22.1401 39.0997L23.98 37.7519C24.2926 37.5227 24.4773 37.1585 24.4773 36.7714V29.4792C24.4773 29.2118 24.3888 28.952 24.2264 28.74L22.61 26.6308C22.3356 26.2653 22.184 25.812 22.184 25.3555V22.4308H27.1429V24.3917C27.1429 25.0627 27.6873 25.607 28.3583 25.607C29.0294 25.607 29.5737 25.0627 29.5737 24.3917V22.4308H34.9216V24.3917C34.9216 25.0627 35.4659 25.607 36.137 25.607C36.808 25.607 37.3524 25.0627 37.3524 24.3917V22.4308H42.3507V25.3543C42.3507 25.8076 42.2024 26.2564 41.9331 26.6206C41.9318 26.6218 41.9306 26.6237 41.9293 26.6256L41.9293 26.6257L40.309 28.7406C40.146 28.9526 40.0581 29.2124 40.0581 29.4798V36.7727C40.0581 37.1553 40.2389 37.5157 40.5452 37.7455L42.352 39.0984L42.3525 39.0991L42.3528 39.0995L42.3533 39.0997C42.8021 39.4345 43.0708 39.9681 43.0727 40.5239V41.2777C43.0727 41.3547 43.0415 41.4298 42.9874 41.4839C42.9326 41.5387 42.8594 41.5693 42.7811 41.5693H21.7199C21.6435 41.5686 21.5716 41.5393 21.5168 41.4852ZM29.5571 36.003H34.9375C35.5067 36.003 36.0415 35.7814 36.4451 35.3784C36.8468 34.976 37.0684 34.4413 37.0684 33.8721V33.1183C37.0684 32.4473 36.5241 31.9029 35.853 31.9029C35.182 31.9029 34.6377 32.4473 34.6377 33.1183V33.5722H29.857V33.1183C29.857 32.4473 29.3127 31.9029 28.6416 31.9029C27.9706 31.9029 27.4263 32.4473 27.4263 33.1183V33.8721C27.4263 34.4406 27.6478 34.976 28.0508 35.3797C28.4532 35.7814 28.9886 36.003 29.5571 36.003Z" fill="#2563EB"/>
</svg>
