<svg width="64" height="64" viewBox="0 0 64 64" fill="none" xmlns="http://www.w3.org/2000/svg">
<rect width="64" height="64" rx="32" fill="#EFF6FF"/>
<path fill-rule="evenodd" clip-rule="evenodd" d="M21.3936 43.6344C21.7586 43.8163 22.1504 43.9063 22.5415 43.9063C23.092 43.9063 23.6395 43.7287 24.1036 43.3807C24.1097 43.3759 24.1164 43.371 24.1225 43.3661L27.3684 40.8259H39.7419C42.0899 40.8259 44 38.9158 44 36.5677V24.1809C44 23.0762 43.5541 22.0299 42.7432 21.233C41.9342 20.438 40.8678 20 39.7419 20H24.2581C21.9101 20 20 21.9101 20 24.2581V41.3679C20 42.3357 20.5341 43.2043 21.3936 43.6344ZM22.3225 24.2581C22.3225 23.1906 23.1906 22.3225 24.2581 22.3225V22.3231H39.7425C40.7918 22.3231 41.6781 23.1735 41.6781 24.1809V36.5671C41.6781 37.6347 40.8094 38.5028 39.7425 38.5028H26.9681C26.7084 38.5028 26.4565 38.5898 26.2521 38.7497L22.7033 41.5272C22.5853 41.6118 22.4831 41.5826 22.4326 41.5571C22.3353 41.5084 22.3225 41.4305 22.3225 41.3679V24.2581ZM30.0175 33.1309C30.2444 33.3578 30.5413 33.4709 30.8387 33.4709C31.1362 33.4709 31.4331 33.3571 31.66 33.1309L36.305 28.4859C36.7588 28.0321 36.7588 27.2966 36.305 26.8434C35.8512 26.3896 35.1163 26.3896 34.6625 26.8434L30.8387 30.6672L29.3375 29.1659C28.8837 28.7121 28.1488 28.7121 27.695 29.1659C27.2412 29.6197 27.2412 30.3546 27.695 30.8084L30.0175 33.1309Z" fill="#2563EB"/>
</svg>
