<svg width="17" height="23" viewBox="0 0 17 23" fill="none" xmlns="http://www.w3.org/2000/svg">
<path fill-rule="evenodd" clip-rule="evenodd" d="M9.79168 2.04833L9.79166 2.04833L9.79164 2.04832L9.79162 2.04832L9.7916 2.04831L9.79158 2.04831L9.79156 2.0483C9.70485 2.02518 9.61815 2.00206 9.53723 1.97894C9.05146 1.86328 8.75074 1.37751 8.8664 0.891738C8.98206 0.382836 9.49096 0.0821209 9.97673 0.19778C10.1642 0.235265 10.3364 0.287936 10.5181 0.343489C10.5606 0.356499 10.6037 0.369667 10.6476 0.382836C11.1333 0.544759 11.3878 1.05366 11.2259 1.53943C11.0871 1.93267 10.7401 2.16399 10.3468 2.16399C10.2543 2.16399 10.1387 2.14086 10.0461 2.11773C9.96521 2.09461 9.8785 2.07149 9.7918 2.04837L9.79178 2.04836L9.79176 2.04835L9.79174 2.04835L9.79172 2.04834L9.7917 2.04834L9.79168 2.04833ZM12.6138 3.92202C12.7988 4.15334 13.0533 4.269 13.3309 4.269C13.539 4.269 13.7472 4.1996 13.9092 4.06081C14.3024 3.73696 14.3718 3.15867 14.0479 2.76542C13.954 2.64013 13.8494 2.52543 13.7414 2.40698L13.7414 2.40697L13.7414 2.40695C13.6899 2.35047 13.6376 2.29313 13.5853 2.23339C13.2383 1.86328 12.6369 1.86328 12.2899 2.21026C11.9198 2.55724 11.9198 3.15867 12.2668 3.50564C12.382 3.64444 12.4977 3.78323 12.6138 3.92202ZM8.24184 9.9827C9.6343 9.9827 10.7632 8.85378 10.7632 7.46132C10.7632 6.06886 9.6343 4.93994 8.24184 4.93994C6.84938 4.93994 5.72046 6.06886 5.72046 7.46132C5.72046 8.85378 6.84938 9.9827 8.24184 9.9827ZM13.4697 14.2157L15.8754 15.4648C16.4301 15.7424 16.6387 16.4364 16.3611 16.9916C16.1761 17.3617 15.7828 17.593 15.3665 17.593C15.2045 17.593 15.0195 17.5467 14.8576 17.4542L12.4518 16.2051C11.8504 15.9044 11.3184 15.4417 10.9251 14.8865L10.8789 14.8403V17.5467L14.6031 19.4667C15.2277 19.7905 15.5284 20.5076 15.2971 21.1784C15.0889 21.7799 14.5569 22.15 13.9554 22.15C13.8629 22.15 13.7935 22.15 13.701 22.1268L8.24184 21.1553L2.75958 22.15C2.66705 22.1731 2.59765 22.1731 2.50513 22.1731C1.92683 22.1731 1.39479 21.7799 1.18661 21.2016C0.955288 20.5307 1.256 19.8136 1.88056 19.4898L5.62793 17.593V14.8634L5.58167 14.9097C5.18843 15.4648 4.65639 15.9044 4.05496 16.2282L1.64925 17.4773C1.09408 17.7549 0.400122 17.5467 0.122539 16.9916C-0.155044 16.4364 0.0531437 15.7424 0.608309 15.4648L3.03716 14.2157C3.31433 14.0769 3.56878 13.8456 3.75425 13.5912L5.14216 11.6249C5.58167 11.0004 6.32189 10.6303 7.08524 10.6303H9.42157C10.1849 10.6303 10.9251 11.0004 11.3646 11.6249L12.7526 13.5912C12.9376 13.8456 13.1921 14.0769 13.4697 14.2157ZM13.8321 6.73611L13.8321 6.73615L13.8397 6.79026C13.886 7.2529 14.3024 7.59988 14.7419 7.59988H14.8575C15.3664 7.53048 15.7134 7.09097 15.6671 6.58207C15.644 6.35076 15.5978 6.11945 15.5515 5.88815L15.5515 5.88811C15.4358 5.40234 14.9501 5.0785 14.4643 5.19416C13.9554 5.28668 13.6315 5.77246 13.7472 6.28136C13.7884 6.42549 13.8112 6.58795 13.8321 6.73611ZM13.3309 9.86692L13.539 9.38115C13.701 8.91851 14.233 8.66406 14.7188 8.82598C15.2045 9.01104 15.4359 9.51994 15.2739 10.0057C15.1814 10.237 15.0889 10.4452 14.9964 10.6534C14.8344 11.0004 14.5106 11.1854 14.1636 11.1854C14.0248 11.1854 13.9092 11.1623 13.7704 11.0929C13.3077 10.8847 13.1227 10.3296 13.3309 9.86692ZM3.15282 4.269C3.4304 4.269 3.68485 4.15334 3.86991 3.92202L3.86992 3.92201L3.86992 3.92201C3.98558 3.78322 4.10123 3.64443 4.21689 3.52878C4.56387 3.15867 4.56387 2.58037 4.19376 2.23339C3.82365 1.88641 3.24535 1.88641 2.89837 2.25652C2.73645 2.41845 2.57452 2.6035 2.43573 2.78856C2.11188 3.1818 2.18128 3.7601 2.57452 4.08395C2.73603 4.1996 2.94463 4.269 3.15282 4.269ZM1.74177 7.59999H1.62611C1.11721 7.55372 0.770232 7.09109 0.816495 6.60532C0.839627 6.374 0.885891 6.14268 0.932155 5.91136C1.02468 5.40246 1.53358 5.07861 2.01935 5.19427C2.52826 5.2868 2.8521 5.7957 2.73644 6.28147C2.69018 6.44339 2.66705 6.60532 2.64392 6.79037C2.59765 7.25301 2.20441 7.59999 1.74177 7.59999ZM6.1368 2.18701C6.22933 2.18701 6.34499 2.16388 6.43752 2.14075C6.48616 2.12685 6.5348 2.11086 6.58408 2.09467L6.58408 2.09467C6.69882 2.05696 6.81696 2.01814 6.94642 2.00196C7.43219 1.8863 7.75604 1.37739 7.61725 0.891625C7.50159 0.405855 6.99268 0.10514 6.50691 0.220799C6.2756 0.267063 6.04428 0.336459 5.83609 0.405855C5.35032 0.567778 5.09587 1.09981 5.25779 1.56245C5.39658 1.95569 5.74356 2.18701 6.1368 2.18701ZM1.20974 10.0288C1.04782 9.54307 1.27914 9.03416 1.76491 8.84911C2.25068 8.66405 2.78271 8.9185 2.94463 9.40427L3.15282 9.89005C3.36101 10.3527 3.17595 10.9078 2.71331 11.116C2.59765 11.1854 2.45886 11.2086 2.32007 11.2086C1.97309 11.2086 1.64925 11.0004 1.48732 10.6765C1.37166 10.4683 1.27914 10.2602 1.20974 10.0288Z" fill="#64748B"/>
</svg>
