<svg width="50" height="50" viewBox="0 0 50 50" fill="none" xmlns="http://www.w3.org/2000/svg">
<rect x="0.5" y="0.5" width="49" height="49" rx="24.5" fill="white" stroke="#E2E8F0"/>
<path fill-rule="evenodd" clip-rule="evenodd" d="M32.6541 23.444C32.9977 23.2952 33.322 23.0999 33.6191 22.8613C34.2832 22.3281 34.7654 21.6149 35.0125 20.8029L35.6328 18.7867C35.9033 17.8949 35.7301 16.9175 35.1706 16.1722C34.6121 15.4288 33.7252 14.9909 32.795 15.0001H17.942H17.9332C17.0098 15.0001 16.1302 15.4424 15.579 16.1834C15.0258 16.9268 14.856 17.8998 15.126 18.7901L15.7439 20.7995C15.9915 21.6149 16.4737 22.3276 17.1383 22.8613C17.4311 23.0963 17.7503 23.2893 18.0885 23.4374C17.5803 24.4938 17.2954 25.6771 17.2954 26.9257C17.2954 31.3779 20.9175 35 25.3697 35C29.8218 35 33.444 31.3779 33.444 26.9257C33.444 25.6797 33.1603 24.4988 32.6541 23.444ZM31.6361 21.8394C31.9333 21.7535 32.2113 21.6094 32.4563 21.4125C32.828 21.1142 33.0976 20.7153 33.2367 20.2589L33.857 18.2438C33.9553 17.9202 33.8916 17.5612 33.6863 17.2873C33.4809 17.0138 33.1555 16.8538 32.8115 16.8572H32.8003H17.9396C17.5956 16.8567 17.2725 17.0187 17.0697 17.2912C16.8668 17.5641 16.8045 17.9212 16.9028 18.2472L17.5207 20.256C17.6603 20.7153 17.9298 21.1138 18.3015 21.4125C18.5425 21.6058 18.8153 21.7484 19.1069 21.8349C20.5886 20.0155 22.8458 18.8514 25.3697 18.8514C27.8957 18.8514 30.1544 20.0174 31.6361 21.8394ZM20.1742 23.515C20.2561 23.4348 20.3235 23.3393 20.3715 23.2327C21.505 21.7026 23.3235 20.709 25.3697 20.709C27.4541 20.709 29.3022 21.7403 30.4307 23.3192C30.4558 23.3623 30.4842 23.403 30.5156 23.4411C31.1913 24.4357 31.5864 25.6355 31.5864 26.9257C31.5864 30.3537 28.7977 33.1425 25.3697 33.1425C21.9417 33.1425 19.1529 30.3537 19.1529 26.9257C19.1529 25.6672 19.5288 24.4948 20.1742 23.515ZM23.481 26.8824C23.2446 26.8824 23.0076 26.7924 22.8266 26.6129C22.4627 26.2514 22.4608 25.6632 22.8223 25.2993L23.7325 24.3827C24.094 24.0188 24.6822 24.0168 25.0462 24.3783C25.4101 24.7398 25.412 25.328 25.0505 25.6919L24.1403 26.6085C23.9588 26.7909 23.7199 26.8824 23.481 26.8824ZM24.2852 29.8414C24.4662 30.0234 24.7046 30.1144 24.9425 30.1144C25.1799 30.1144 25.4174 30.0244 25.5988 29.8429L28.2859 27.1622C28.6488 26.7997 28.6498 26.2115 28.2873 25.8486C27.9249 25.4856 27.3367 25.4846 26.9737 25.8471L24.2867 28.5278C23.9238 28.8903 23.9228 29.4785 24.2852 29.8414Z" fill="black"/>
</svg>
