<svg width="18" height="19" viewBox="0 0 18 19" fill="none" xmlns="http://www.w3.org/2000/svg">
<path fill-rule="evenodd" clip-rule="evenodd" d="M15.9041 15.0252C17.3425 13.3089 18.0817 11.1497 17.9928 8.8966C17.7972 3.93794 13.6034 0.0629048 8.64521 0.25856C6.2429 0.353289 4.02164 1.37804 2.39 3.14337C0.758806 4.90869 -0.0875574 7.20431 0.0071715 9.60618C0.1019 12.0085 1.12665 14.2297 2.89198 15.8609C3.07441 16.0295 3.26249 16.1898 3.45575 16.3414C4.47304 17.1436 5.65506 17.7183 6.92367 18.0219C7.61112 18.1866 8.31184 18.2685 9.01169 18.2685C9.94835 18.2685 10.8837 18.1215 11.7832 17.8289C13.3551 17.3186 14.7539 16.385 15.8282 15.1292C15.8564 15.0963 15.8817 15.0615 15.9041 15.0252ZM15.2794 13.053C16.0216 11.8328 16.3901 10.4216 16.3324 8.96211C16.1766 5.01714 12.9173 1.91366 9.00376 1.91366C8.90638 1.91366 8.80899 1.91543 8.71072 1.91941C6.7524 1.99688 4.94104 2.83218 3.61085 4.2717C2.28067 5.71123 1.59056 7.58279 1.66803 9.54111C1.72577 11.0008 2.20453 12.3788 3.04072 13.5368C3.59756 12.7262 4.48224 12.0368 5.59879 11.5481C5.13931 11.0001 4.81573 10.3414 4.66567 9.62294C4.39963 8.35296 4.70462 7.03737 5.50273 6.01395C6.3004 4.99052 7.50134 4.37346 8.79833 4.32167C10.0953 4.26943 11.3418 4.78823 12.2192 5.74437C13.0965 6.70051 13.506 7.98732 13.3427 9.27457C13.2497 10.0058 12.9784 10.6906 12.5618 11.2754C13.7114 11.677 14.6517 12.2935 15.2794 13.053ZM14.2154 14.4138C13.6845 13.5156 12.4012 12.8002 10.7867 12.5352C10.4481 12.4794 10.1785 12.2218 10.1082 11.8858C10.0378 11.5498 10.1812 11.2054 10.4689 11.0182C11.1462 10.5782 11.5933 9.86641 11.6946 9.06431C11.796 8.2631 11.541 7.46188 10.9952 6.86651C10.449 6.27113 9.67302 5.94844 8.86561 5.98119C8.0582 6.01351 7.31055 6.39773 6.81389 7.03472C6.31722 7.67215 6.12733 8.49062 6.29288 9.28165C6.45843 10.0727 6.96085 10.7464 7.67132 11.1306C7.9741 11.2944 8.14452 11.6277 8.10025 11.969C8.05599 12.3103 7.80544 12.5888 7.47079 12.6693C5.89626 13.0491 4.6577 13.8809 4.21858 14.8153C4.34706 14.9269 4.47918 15.0338 4.61468 15.1359C5.95758 16.1407 7.59134 16.6514 9.28972 16.5838C11.1638 16.5097 12.9034 15.7415 14.2154 14.4138Z" fill="#64748B"/>
</svg>
