<svg width="60" height="60" viewBox="0 0 60 60" fill="none" xmlns="http://www.w3.org/2000/svg">
<rect width="60" height="60" rx="30" fill="white"/>
<path fill-rule="evenodd" clip-rule="evenodd" d="M20.8739 39.1433C22.086 40.4418 27.4531 38.6244 33.0801 32.9974L33.095 32.9825C34.1271 31.949 35.0743 31.0005 35.936 29.881C35.1573 28.8417 34.205 27.8031 33.2528 26.8509C32.0408 25.6395 30.7424 24.5138 29.4439 23.5616C25.2888 20.4451 21.7398 19.6664 20.7876 20.6186C20.0081 21.4837 20.5277 24.1676 22.9518 27.8908C23.817 26.8522 24.7692 25.8129 25.8949 24.7743C26.4138 24.3411 27.1933 24.3411 27.6259 24.8607C28.0591 25.3797 28.0591 26.1591 27.5395 26.5917C22.7784 31.0059 20.5277 35.5079 20.5277 37.8449C20.5277 38.2775 20.5277 38.7971 20.8739 39.1433ZM37.2351 27.9765C39.4858 24.4268 40.0918 21.6572 39.226 20.7913C38.3601 19.9255 35.6769 20.3588 32.0408 22.6958C32.993 23.4752 33.9452 24.3404 34.8111 25.2062C35.6769 26.1585 36.4564 27.0243 37.2351 27.9765ZM30.05 21.2239C34.8111 17.9347 38.9661 17.0688 40.957 19.0597C43.1212 21.3103 41.7364 25.7259 38.7056 29.9673C41.9956 34.7284 42.8607 38.8835 40.8699 40.8743C40.0911 41.6538 39.1389 42 37.9269 42C36.6284 42 34.8974 41.5674 33.0794 40.6152C32.4734 40.269 32.2135 39.5766 32.5597 38.9706C32.9059 38.3646 33.5983 38.1911 34.2044 38.4509C36.5421 39.6623 38.5329 39.9221 39.2253 39.2297C40.0911 38.3639 39.5715 35.68 37.2345 32.0445C36.5414 32.9968 35.6762 33.949 34.8104 34.8148C30.8287 38.7971 25.7207 42 22.0853 42C20.8733 42 19.921 41.6531 19.1423 40.8743C18.7097 40.3547 18.1037 39.4025 18.1037 37.8442C18.1037 35.5936 19.3157 32.8233 21.3065 29.9667C17.9302 25.1192 17.0651 21.0505 19.0559 19.0597C21.0474 17.0688 25.2888 17.9347 30.05 21.2239ZM29.6168 33.4301C31.29 33.4301 32.6469 32.0732 32.6469 30.4C32.6469 28.7261 31.2906 27.3699 29.6168 27.3699C27.9429 27.3699 26.5867 28.7268 26.5867 30.4C26.5867 32.0732 27.9436 33.4301 29.6168 33.4301Z" fill="#2563EB"/>
</svg>
