<svg width="50" height="50" viewBox="0 0 50 50" fill="none" xmlns="http://www.w3.org/2000/svg">
<rect x="0.5" y="0.5" width="49" height="49" rx="24.5" fill="white" stroke="#E2E8F0"/>
<path fill-rule="evenodd" clip-rule="evenodd" d="M16.1614 34.6953C16.4655 34.8469 16.792 34.9219 17.1179 34.9219C17.5767 34.9219 18.0329 34.7739 18.4197 34.484C18.4222 34.4819 18.4249 34.4799 18.4275 34.4779C18.4302 34.4758 18.4329 34.4738 18.4354 34.4718L21.1403 32.3549H31.4516C33.4083 32.3549 35 30.7632 35 28.8065V18.4841C35 17.5635 34.6284 16.6916 33.9527 16.0275C33.2785 15.365 32.3899 15 31.4516 15H18.5484C16.5917 15 15 16.5917 15 18.5484V32.8066C15 33.6131 15.4451 34.3369 16.1614 34.6953ZM16.9354 18.5484C16.9354 17.6588 17.6588 16.9354 18.5484 16.9354V16.9359H31.4521C32.3265 16.9359 33.0651 17.6446 33.0651 18.4841V28.806C33.0651 29.6956 32.3412 30.419 31.4521 30.419H20.8068C20.5903 30.419 20.3804 30.4915 20.2101 30.6248L17.2527 32.9394C17.1544 33.0098 17.0692 32.9855 17.0272 32.9642C16.9461 32.9237 16.9354 32.8588 16.9354 32.8066V18.5484ZM23.348 25.9424C23.537 26.1314 23.7844 26.2257 24.0323 26.2257C24.2802 26.2257 24.5276 26.1309 24.7166 25.9424L28.5875 22.0715C28.9656 21.6934 28.9656 21.0805 28.5875 20.7028C28.2093 20.3247 27.5969 20.3247 27.2188 20.7028L24.0323 23.8893L22.7812 22.6383C22.4031 22.2601 21.7907 22.2601 21.4125 22.6383C21.0344 23.0164 21.0344 23.6288 21.4125 24.0069L23.348 25.9424Z" fill="black"/>
</svg>
