<svg width="60" height="60" viewBox="0 0 60 60" fill="none" xmlns="http://www.w3.org/2000/svg">
<rect width="60" height="60" rx="30" fill="white"/>
<path fill-rule="evenodd" clip-rule="evenodd" d="M18 30.0003C18 36.6172 23.3834 42 30.0003 42C36.6172 42 42 36.6172 42.0006 30.0003C42.0006 23.3834 36.6172 18 30.0003 18C23.3834 18 18 23.3834 18 30.0003ZM20.2784 30.0003C20.2784 24.6396 24.6396 20.2784 30.0003 20.2784C35.3604 20.2784 39.7216 24.6396 39.7222 30.0003C39.7222 35.361 35.361 39.7222 30.0003 39.7222C24.6396 39.7222 20.2784 35.361 20.2784 30.0003ZM33.66 34.6813C33.882 34.8538 34.1439 34.9367 34.4041 34.9367C34.7664 34.9367 35.1256 34.775 35.3643 34.4665C35.7755 33.9365 35.6794 33.1727 35.1489 32.7615L31.2144 29.7085V25.7466C31.2144 25.0758 30.6708 24.5316 29.9994 24.5316C29.3287 24.5316 28.7844 25.0752 28.7844 25.7466V30.3034C28.7844 30.6788 28.9581 31.0333 29.2547 31.2636L33.66 34.6813Z" fill="#2563EB"/>
</svg>
