<svg width="60" height="60" viewBox="0 0 60 60" fill="none" xmlns="http://www.w3.org/2000/svg">
<rect width="60" height="60" rx="30" fill="white"/>
<path fill-rule="evenodd" clip-rule="evenodd" d="M21.0184 40H36.9779C38.6439 40 40 38.6445 40 36.9779V23.0221C40 21.3555 38.6445 20 36.9779 20H21.0184C20.456 20 20 20.456 20 21.0184V38.9816C20 39.544 20.456 40 21.0184 40ZM36.9779 37.9632H22.0368V22.0368H32.9021V28.2732C32.9021 28.8834 33.3966 29.3784 34.0073 29.3784C34.6175 29.3784 35.1126 28.8834 35.1126 28.2726V22.0368H36.9779C37.5213 22.0368 37.9632 22.4787 37.9632 23.0221V36.9779C37.9632 37.5213 37.5213 37.9632 36.9779 37.9632Z" fill="#2563EB"/>
</svg>
