<svg width="24" height="22" viewBox="0 0 24 22" fill="none" xmlns="http://www.w3.org/2000/svg">
<g filter="url(#filter0_dd_338_300)">
<path d="M13.7822 13.0942L19.8204 7.05599C20.0599 6.81651 20.0599 6.44019 19.8204 6.21782L13.7822 0.179607C13.5427 -0.059869 13.1664 -0.059869 12.944 0.179607L12.294 0.829613C12.0545 1.06909 12.0545 1.44541 12.294 1.66778L16.1769 5.55071H4.59869C4.27369 5.55071 4 5.8244 4 6.1494V7.05599C4 7.38099 4.27369 7.65468 4.59869 7.65468H16.2625L12.294 11.6231C12.0545 11.8626 12.0545 12.2389 12.294 12.4613L12.944 13.1113C13.1835 13.3337 13.5598 13.3337 13.7822 13.0942Z" fill="white"/>
</g>
<defs>
<filter id="filter0_dd_338_300" x="0" y="0" width="24" height="21.2761" filterUnits="userSpaceOnUse" color-interpolation-filters="sRGB">
<feFlood flood-opacity="0" result="BackgroundImageFix"/>
<feColorMatrix in="SourceAlpha" type="matrix" values="0 0 0 0 0 0 0 0 0 0 0 0 0 0 0 0 0 0 127 0" result="hardAlpha"/>
<feOffset dy="4"/>
<feGaussianBlur stdDeviation="2"/>
<feComposite in2="hardAlpha" operator="out"/>
<feColorMatrix type="matrix" values="0 0 0 0 0 0 0 0 0 0 0 0 0 0 0 0 0 0 0.25 0"/>
<feBlend mode="normal" in2="BackgroundImageFix" result="effect1_dropShadow_338_300"/>
<feColorMatrix in="SourceAlpha" type="matrix" values="0 0 0 0 0 0 0 0 0 0 0 0 0 0 0 0 0 0 127 0" result="hardAlpha"/>
<feOffset dy="4"/>
<feGaussianBlur stdDeviation="2"/>
<feComposite in2="hardAlpha" operator="out"/>
<feColorMatrix type="matrix" values="0 0 0 0 0 0 0 0 0 0 0 0 0 0 0 0 0 0 0.25 0"/>
<feBlend mode="normal" in2="effect1_dropShadow_338_300" result="effect2_dropShadow_338_300"/>
<feBlend mode="normal" in="SourceGraphic" in2="effect2_dropShadow_338_300" result="shape"/>
</filter>
</defs>
</svg>
