<svg width="20" height="19" viewBox="0 0 20 19" fill="none" xmlns="http://www.w3.org/2000/svg">
<path fill-rule="evenodd" clip-rule="evenodd" d="M15.5752 18.9224H4.42429C3.26857 18.9224 2.15 18.4052 1.27381 17.4657C0.47619 16.6109 0 15.5014 0 14.4986V7.63185V4.69284C0 2.25332 1.98476 0.268555 4.42429 0.268555H15.5757C16.7314 0.268555 17.85 0.785698 18.7262 1.72475C19.5238 2.57998 20 3.68951 20 4.69236V14.4981C19.9995 16.9381 18.0148 18.9224 15.5752 18.9224ZM1.8181 4.69284V6.7228H18.1814V4.69284C18.1814 3.54427 16.9543 2.08665 15.5757 2.08665H4.42429C2.98714 2.08665 1.8181 3.2557 1.8181 4.69284ZM18.1814 8.5409H1.8181V14.4986C1.8181 15.6471 3.04524 17.1043 4.42429 17.1043H15.5757C17.0129 17.1043 18.1814 15.9352 18.1814 14.4986V8.5409ZM5.02385 11.8381H9.13909C9.64147 11.8381 10.0481 11.431 10.0481 10.9291C10.0481 10.4272 9.64099 10.02 9.13909 10.02H5.02385C4.52195 10.02 4.1148 10.4272 4.1148 10.9291C4.1148 11.431 4.52195 11.8381 5.02385 11.8381ZM7.08471 14.9956H5.02423C4.52233 14.9956 4.11518 14.5885 4.11518 14.0866C4.11518 13.5847 4.52233 13.1776 5.02423 13.1776H7.08471C7.58661 13.1776 7.99375 13.5847 7.99375 14.0866C7.99375 14.5885 7.58661 14.9956 7.08471 14.9956ZM15.4361 14.9292C16.0923 14.9292 16.6242 14.3973 16.6242 13.7411C16.6242 13.0854 16.0923 12.553 15.4361 12.553C14.78 12.553 14.248 13.0849 14.248 13.7411C14.248 14.3973 14.78 14.9292 15.4361 14.9292Z" fill="#64748B"/>
</svg>
