<svg width="20" height="25" viewBox="0 0 20 25" fill="none" xmlns="http://www.w3.org/2000/svg">
<path d="M10 4.67742C8.48142 4.67742 7.02504 5.28067 5.95124 6.35447C4.87745 7.42827 4.27419 8.88465 4.27419 10.4032C4.27419 11.9218 4.87745 13.3782 5.95124 14.452C7.02504 15.5258 8.48142 16.129 10 16.129C11.5186 16.129 12.975 15.5258 14.0488 14.452C15.1226 13.3782 15.7258 11.9218 15.7258 10.4032C15.7258 8.88465 15.1226 7.42827 14.0488 6.35447C12.975 5.28067 11.5186 4.67742 10 4.67742V4.67742ZM10 14.5161C7.74194 14.5161 5.96774 12.5806 5.96774 10.3226C5.96774 8.06452 7.74194 6.29032 10 6.29032C12.2581 6.29032 14.0323 8.06452 14.0323 10.3226C14.0323 12.5806 12.2581 14.5161 10 14.5161ZM10 0C7.34784 0 4.8043 1.05357 2.92893 2.92893C1.05357 4.8043 0 7.34784 0 10C0 14.5161 3.54839 18.2258 6.93548 21.9355L8.22581 23.3871C8.70968 23.871 9.35484 24.1935 10 24.1935C10.6452 24.1935 11.2903 23.871 11.7742 23.3871L13.3871 21.4516C18.5484 15.4839 20 13.871 20 10C20 4.51613 15.4839 0 10 0V0ZM12.2581 20.4839L10.6452 22.4194L10 22.5806L9.51613 22.4194L8.06452 20.9677C4.83871 17.5806 1.6129 14.0323 1.6129 10.1613C1.6129 5.32258 5.32258 1.6129 10 1.6129C14.6774 1.6129 18.3871 5.32258 18.3871 10C18.3871 13.2258 17.4194 14.5161 12.2581 20.4839V20.4839Z" fill="black"/>
</svg>
