<svg width="18" height="18" viewBox="0 0 18 18" fill="none" xmlns="http://www.w3.org/2000/svg">
<path fill-rule="evenodd" clip-rule="evenodd" d="M15.8889 14.76C17.326 13.0452 18.0646 10.888 17.9758 8.63696C17.7803 3.68299 13.5906 -0.188382 8.63703 0.00708833C6.237 0.101728 4.01784 1.12551 2.38774 2.88917C0.758088 4.65282 -0.0874746 6.94627 0.00716472 9.34587C0.101804 11.7459 1.12559 13.9651 2.88924 15.5947C3.08615 15.7767 3.28965 15.9489 3.49916 16.1111C4.50491 16.8935 5.66909 17.4548 6.91716 17.7535C7.60396 17.918 8.30403 17.9999 9.00321 17.9999C9.93899 17.9999 10.8734 17.853 11.7721 17.5607C13.3425 17.0508 14.7399 16.1181 15.8133 14.8635C15.8413 14.8307 15.8666 14.7961 15.8889 14.76ZM15.2651 12.7893C16.0064 11.5703 16.3746 10.1604 16.317 8.70241C16.1613 4.76117 12.9051 1.66062 8.99525 1.66062C8.89795 1.66062 8.80066 1.66239 8.70248 1.66637C6.74601 1.74376 4.93637 2.57827 3.60744 4.01643C2.27851 5.4546 1.58906 7.32439 1.66645 9.28086C1.72413 10.7391 2.20244 12.1158 3.03782 13.2727C3.59412 12.4628 4.47799 11.7741 5.59354 11.2858C5.13449 10.7383 4.81122 10.0802 4.6613 9.36247C4.39551 8.09369 4.70021 6.77935 5.49757 5.75689C6.29449 4.73443 7.49428 4.11795 8.79005 4.06621C10.0858 4.01402 11.3312 4.53233 12.2077 5.48757C13.0842 6.4428 13.4933 7.7284 13.3301 9.01443C13.2372 9.74501 12.9661 10.4292 12.55 11.0134C13.6985 11.4146 14.6379 12.0305 15.2651 12.7893ZM14.202 14.1489C13.6716 13.2515 12.3896 12.5368 10.7766 12.272C10.4383 12.2162 10.169 11.9589 10.0986 11.6232C10.0283 11.2875 10.1716 10.9435 10.4591 10.7564C11.1357 10.3168 11.5823 9.6057 11.6836 8.80437C11.7849 8.00391 11.5302 7.20346 10.9849 6.60864C10.4392 6.01383 9.66391 5.69144 8.85727 5.72416C8.05062 5.75645 7.30368 6.14031 6.80749 6.7767C6.31129 7.41352 6.12157 8.23122 6.28697 9.02151C6.45237 9.81179 6.95431 10.4849 7.6641 10.8687C7.9666 11.0324 8.13686 11.3654 8.09264 11.7063C8.04841 12.0473 7.7981 12.3255 7.46377 12.406C5.89072 12.7854 4.65334 13.6164 4.21463 14.5499C4.35507 14.6719 4.49986 14.7883 4.64866 14.8988C5.98298 15.8839 7.60029 16.3838 9.28093 16.3169C11.1533 16.2428 12.8912 15.4753 14.202 14.1489Z" fill="white"/>
</svg>
