<svg width="16" height="16" viewBox="0 0 16 16" fill="none" xmlns="http://www.w3.org/2000/svg">
<path d="M14.8917 5.94286L14.837 5.75959L14.6515 5.80597L13.8515 6.00597L13.6724 6.05075L13.7027 6.23288L14 8.01642C13.991 11.294 11.2883 13.9 8 13.9C4.7062 13.9 2 11.2853 2.00001 8L1.99999 7.99771C1.98777 6.93231 2.26428 5.88348 2.80017 4.96259C3.33606 4.04169 4.11131 3.2831 5.04364 2.76734C5.97596 2.25159 7.03054 1.99793 8.09543 2.03329C9.16031 2.06866 10.1957 2.39173 11.0918 2.9682L11.2792 3.08878L11.3789 2.88944L11.7789 2.08944L11.8596 1.92811L11.7074 1.83127C10.571 1.10812 9.33262 0.8 8 0.8C6.09044 0.8 4.25909 1.55857 2.90883 2.90883C1.55857 4.25909 0.8 6.09044 0.8 8C0.8 12.0105 3.98954 15.2 8 15.2H8.00023C9.12091 15.1987 10.2258 14.9358 11.227 14.4322C12.2282 13.9287 13.098 13.1984 13.7672 12.2994C14.4364 11.4005 14.8865 10.3578 15.0817 9.25423C15.2769 8.15069 15.2119 7.01682 14.8917 5.94286ZM6.04142 6.25858L5.9 6.11716L5.75858 6.25858L5.15858 6.85858L5.01716 7L5.15858 7.14142L7.95858 9.94142L8.1 10.0828L8.24142 9.94142L14.9414 3.24142L15.0828 3.1L14.9414 2.95858L14.3414 2.35858L14.2 2.21716L14.0586 2.35858L8.1 8.31716L6.04142 6.25858Z" fill="#64748B" stroke="#64748B" stroke-width="0.4"/>
</svg>
