<svg width="60" height="60" viewBox="0 0 60 60" fill="none" xmlns="http://www.w3.org/2000/svg">
<rect width="60" height="60" rx="30" fill="white"/>
<path fill-rule="evenodd" clip-rule="evenodd" d="M29.9841 42.4443C28.9936 42.4443 28.003 42.2187 27.1005 41.768L20.5635 38.4992L20.5498 38.4922L20.536 38.4852C19.4764 37.9483 18.5873 37.1314 17.963 36.1213C17.3333 35.1014 17 33.9293 17 32.7321V25.4088C16.997 24.0685 17.4152 22.7863 18.2101 21.704C19.0037 20.623 20.0988 19.8409 21.3774 19.4404C24.1637 18.5459 27.0608 18.0616 29.9872 18.0005C30.0037 17.9998 30.0202 17.9998 30.0367 18.0005C32.9539 18.0634 35.8418 18.5477 38.6208 19.4398C39.8822 19.8342 41.0079 20.6382 41.7899 21.7034C42.5842 22.7863 43.0024 24.0679 43 25.4106V32.7308C42.9982 33.9293 42.6643 35.0996 42.0345 36.117C41.4053 37.1339 40.5071 37.955 39.4371 38.4907C39.434 38.4925 39.431 38.4937 39.4279 38.4956L32.8671 41.768C31.9646 42.2187 30.9747 42.4443 29.9841 42.4443ZM21.6323 36.4234L28.1449 39.6793C29.2968 40.2547 30.6726 40.2547 31.8252 39.6793L38.394 36.4032C38.3952 36.4026 38.3958 36.402 38.397 36.402C39.0776 36.0602 39.6493 35.5374 40.0498 34.8892C40.4515 34.2399 40.6649 33.4933 40.6661 32.7296V25.4088C40.6679 24.5656 40.4062 23.7627 39.9085 23.0853C39.4181 22.4176 38.7125 21.9137 37.9219 21.6673C37.9204 21.6667 37.9187 21.6662 37.917 21.6658C37.9153 21.6653 37.9137 21.6649 37.9121 21.6643C35.3545 20.8425 32.6971 20.3955 30.0122 20.335C27.3188 20.3931 24.6535 20.84 22.0897 21.6643C22.0882 21.6649 22.0865 21.6653 22.0848 21.6658C22.0831 21.6662 22.0815 21.6667 22.0799 21.6673C21.2777 21.9174 20.5904 22.4078 20.0927 23.0853C19.5956 23.7627 19.3339 24.5656 19.3357 25.4063V32.7315C19.3357 33.4958 19.5485 34.2436 19.9503 34.8941C20.352 35.5441 20.9255 36.0687 21.6091 36.4111C21.6111 36.4123 21.6132 36.4134 21.6152 36.4145C21.6177 36.4159 21.6203 36.4172 21.6229 36.4185L21.6323 36.4234ZM26.6028 29.6424C26.3038 29.6424 26.0054 29.5287 25.7773 29.3006C25.3212 28.8445 25.3212 28.1059 25.7773 27.6497L27.5365 25.8906C27.9926 25.4344 28.7313 25.4344 29.1874 25.8906C29.6435 26.3467 29.6435 27.0853 29.1874 27.5415L27.4283 29.3006C27.2008 29.5281 26.9018 29.6424 26.6028 29.6424ZM27.7852 34.4056C28.0133 34.6337 28.3117 34.7474 28.6107 34.7474C28.9097 34.7474 29.2081 34.6331 29.4361 34.4056L34.7514 29.0903C35.2076 28.6342 35.2076 27.8955 34.7514 27.4394C34.2953 26.9833 33.5567 26.9833 33.1005 27.4394L27.7852 32.7547C27.3291 33.2108 27.3291 33.9495 27.7852 34.4056Z" fill="#2563EB"/>
</svg>
