<svg width="18" height="19" viewBox="0 0 18 19" fill="none" xmlns="http://www.w3.org/2000/svg">
<path fill-rule="evenodd" clip-rule="evenodd" d="M9.81843 14.3716H14.2799C16.3315 14.3716 18 12.7027 18 10.6515V3.89318C18 2.17286 16.3748 0.173096 14.2799 0.173096H3.72009C1.6689 0.173096 0 1.84199 0 3.89318V10.6515C0 12.3718 1.62518 14.3716 3.72009 14.3716H8.1821V15.8775C5.66529 16.0192 4.42608 16.7827 4.28115 16.8775L5.17731 18.2468L5.1701 18.2515C5.18624 18.2417 6.42074 17.4916 8.99983 17.4916C11.5837 17.4916 12.8181 18.2438 12.8301 18.2515L12.8232 18.2468L13.7194 16.8775C13.5744 16.7827 12.3352 16.0192 9.81843 15.8775V14.3716ZM1.63632 3.89318C1.63632 2.74416 2.57106 1.80942 3.72009 1.80942H14.2799C14.7869 1.80942 15.3167 2.06614 15.7337 2.51315C16.1224 2.92973 16.3637 3.4586 16.3637 3.89318V10.6515C16.3637 11.8005 15.4289 12.7353 14.2799 12.7353H3.72009C3.21308 12.7353 2.68335 12.4785 2.26634 12.0315C1.87762 11.6149 1.63632 11.0861 1.63632 10.6515V3.89318ZM10.9528 10.8534H11.9947C12.5613 10.8534 13.094 10.6327 13.4952 10.2324C13.8959 9.83168 14.1166 9.29895 14.1166 8.73194V7.53748C14.1166 7.08575 13.7502 6.71932 13.2985 6.71932C12.8467 6.71932 12.4803 7.08575 12.4803 7.53748V8.73194C12.4803 8.85965 12.4284 8.9848 12.3384 9.0748C12.2463 9.16652 12.1246 9.21709 11.9947 9.21709H10.9528C10.5011 9.21709 10.1347 9.58353 10.1347 10.0353C10.1347 10.487 10.5011 10.8534 10.9528 10.8534Z" fill="#64748B"/>
</svg>
