<svg width="20" height="17" viewBox="0 0 20 17" fill="none" xmlns="http://www.w3.org/2000/svg">
<path fill-rule="evenodd" clip-rule="evenodd" d="M19.464 11.1477C19.1725 10.8071 18.7882 10.5657 18.3642 10.4483V3.77969C18.3642 2.84476 18.0005 1.96462 17.3409 1.30227C16.6812 0.639471 15.8029 0.272596 14.8643 0.268555H5.14865C4.21059 0.268555 3.3291 0.633634 2.66585 1.29688C2.0026 1.96013 1.63752 2.84207 1.63752 3.77969V10.4478C1.21289 10.5649 0.828151 10.8064 0.535998 11.1477C0.121075 11.6327 -0.06618 12.2717 0.0209361 12.9035L0.191127 14.4451L0.192474 14.4563C0.259382 14.9974 0.522078 15.4945 0.932511 15.856C1.34025 16.2148 1.86339 16.412 2.40315 16.412C2.40585 16.412 2.40854 16.412 2.41124 16.4129H17.5946C18.1388 16.4124 18.6633 16.2139 19.0711 15.8533C19.4788 15.4932 19.7406 14.9974 19.8075 14.4572L19.8088 14.4456L19.979 12.904C20.0662 12.2721 19.8793 11.6331 19.464 11.1477ZM16.4172 10.3677H16.6799V3.77969C16.6799 3.29292 16.4908 2.83533 16.1473 2.49046C15.8038 2.14559 15.3471 1.95474 14.8607 1.9525H5.14865C4.66054 1.9525 4.20205 2.14245 3.85673 2.48732C3.51186 2.83264 3.32146 3.29112 3.32146 3.77924V10.3677H10.847L9.47752 8.46689C9.20539 8.08968 9.29116 7.56295 9.66836 7.29127C10.0456 7.01959 10.5723 7.10491 10.844 7.48212L13.8787 11.6942C14.1503 12.0714 14.065 12.5982 13.6878 12.8698C13.5387 12.9772 13.3668 13.0288 13.1961 13.0288C12.9343 13.0288 12.6766 12.9071 12.5122 12.679L12.0609 12.0526H2.22129C2.06502 12.0553 1.91728 12.1249 1.81535 12.2434C1.71296 12.3633 1.66716 12.5218 1.68961 12.6776C1.69096 12.6871 1.69231 12.697 1.6932 12.7064L1.86384 14.2543C1.88136 14.3849 1.94512 14.5048 2.04436 14.5924C2.14405 14.68 2.27203 14.7285 2.40495 14.7285H2.40675H17.5946C17.7275 14.7285 17.8559 14.68 17.9556 14.5915C18.0544 14.5044 18.1182 14.3845 18.1352 14.2538L18.3059 12.7068C18.3062 12.7029 18.3066 12.6991 18.3071 12.6953C18.3075 12.692 18.308 12.6888 18.3084 12.6855L18.3095 12.6781C18.3324 12.5218 18.2866 12.3638 18.1837 12.2434C18.0822 12.1249 17.9345 12.0553 17.7782 12.0526H16.4172C15.9519 12.0526 15.5747 11.6754 15.5747 11.2101C15.5747 10.7449 15.9519 10.3677 16.4172 10.3677Z" fill="#64748B"/>
</svg>
