<svg width="232" height="110" viewBox="0 0 232 110" fill="none" xmlns="http://www.w3.org/2000/svg">
<g opacity="0.6">
<path fill-rule="evenodd" clip-rule="evenodd" d="M117.239 55.4157C117.046 60.9756 113.038 65.1771 107.96 65.1771C102.66 65.1771 98.3252 60.5896 98.3252 54.9926C98.3252 49.3658 102.66 44.7784 107.96 44.7784C111.546 44.7784 114.619 46.8123 116.207 50.2418L116.274 50.4051H120.312L120.186 50.0191C118.271 44.526 113.483 41 107.96 41C100.56 41 94.5468 47.2725 94.5468 54.9629C94.5468 62.6532 100.56 68.9257 107.96 68.9257C111.338 68.9406 114.582 67.5821 116.95 65.1771C119.496 62.5715 120.899 59.053 120.832 55.4157H117.239ZM46.6309 50.4125H50.5726L50.4464 50.0265C48.6946 44.526 44.0106 41.1262 38.2206 41.1262C30.9162 41.1262 25 47.3394 25 55C25 62.6607 30.9162 68.9035 38.2206 68.9035C43.9438 68.9035 48.6277 65.474 50.439 59.9809L50.5652 59.5949H46.6532L46.5641 59.8176C45.0127 63.2471 41.8801 65.281 38.2206 65.281C32.9798 65.281 28.7487 60.6935 28.7487 55.0297C28.7487 49.3659 33.017 44.7858 38.2206 44.7858C42.0063 44.7858 45.0424 46.7901 46.5641 50.2492L46.6309 50.4125ZM79.2777 50.2789C80.6881 48.8537 82.6107 48.0594 84.6149 48.0817C88.8832 48.0817 91.7931 50.8579 92.3127 55.2598V55.3563L88.564 55.386V55.3192C88.178 52.9883 86.5598 51.6002 84.1992 51.6002C81.4156 51.6002 79.4113 53.6045 79.4113 56.3881V68.51H75.6255V48.5642H79.2777V50.2789ZM62.1823 48.0817C64.6616 48.1114 67.0073 49.2397 68.581 51.1548V48.5642H72.2332V68.5175H68.581V65.8971C67.0147 67.8271 64.669 68.9703 62.1823 69C56.5852 69 52.1908 64.4051 52.1908 58.5557C52.1908 52.6692 56.5927 48.0817 62.1823 48.0817ZM55.9766 58.5854C55.9766 62.3415 58.7528 65.3775 62.1823 65.3775C65.5746 65.3775 68.4548 62.2747 68.4845 58.5854C68.4845 54.8664 65.6043 51.6967 62.1823 51.6967C58.7602 51.6967 55.9766 54.7699 55.9766 58.5854ZM37.3818 51.9936H39.8388V59.2015H37.3818V51.9936ZM43.4989 54.4778C44.2649 54.2969 44.7393 53.5292 44.5584 52.7632C44.3775 51.9972 43.6099 51.5228 42.8439 51.7037C42.0778 51.8846 41.6034 52.6522 41.7843 53.4182C41.9652 54.1843 42.7329 54.6586 43.4989 54.4778ZM34.5649 51.7752C35.2921 52.0765 35.6374 52.9102 35.3362 53.6374C35.035 54.3647 34.2012 54.71 33.474 54.4088C32.7468 54.1075 32.4014 53.2738 32.7027 52.5466C33.0039 51.8193 33.8376 51.474 34.5649 51.7752ZM175.258 60.6193C175.258 63.5737 173.314 65.5556 170.419 65.5556C167.509 65.5556 165.549 63.5737 165.549 60.6193V48.7794H162.231V60.6267C162.231 65.37 165.675 68.8144 170.419 68.8144C175.162 68.8144 178.606 65.37 178.606 60.6193V48.7794H175.258V60.6193ZM185.747 53.6712C185.747 54.7401 186.46 55.2523 190.402 55.8684C194.989 56.581 198.485 57.5163 198.448 62.0519C198.448 65.9935 195.152 68.6436 190.238 68.6436C185.354 68.6436 181.865 65.9267 181.316 61.7549L181.286 61.4283H185.072L185.102 61.651C185.495 63.7518 187.499 65.0805 190.246 65.0805C193.252 65.0805 194.804 63.6256 194.804 62.2003C194.804 61.0349 194.447 60.0996 189.793 59.4835C184.975 58.8005 181.999 57.6054 181.999 53.7602C181.999 50.8504 184.456 47.7178 189.889 47.7178C194.514 47.7178 197.647 50.1378 198.07 54.0201L198.099 54.3467H194.284L194.217 54.124C193.831 52.3127 192.243 51.2438 189.852 51.2438C187.559 51.2438 185.747 52.3127 185.747 53.6712ZM115.035 58.5854C115.272 58.0732 115.451 57.5239 115.555 56.9671C115.658 56.4549 115.725 55.9353 115.748 55.4157H106.632V58.7487H114.938L115.035 58.5854ZM131.819 65.5556C134.714 65.5556 136.658 63.5737 136.658 60.6193V48.7794H140.006V60.6193C140.006 65.37 136.562 68.8144 131.819 68.8144C127.075 68.8144 123.631 65.37 123.631 60.6267V48.7794H126.949V60.6193C126.949 63.5737 128.909 65.5556 131.819 65.5556ZM204.446 47.9331C204.506 47.9702 204.558 48.0148 204.602 48.0667C204.647 48.1187 204.684 48.1781 204.721 48.2449L205.909 49.967H205.137C205.04 49.9745 204.944 49.9299 204.892 49.8409L203.845 48.282C203.815 48.2375 203.778 48.2004 203.734 48.1781C203.667 48.1484 203.6 48.1335 203.533 48.141H203.125V49.9745H202.316V45.3647H203.8C204.268 45.335 204.728 45.4464 205.122 45.6913C205.411 45.914 205.567 46.2703 205.545 46.6415C205.552 46.9384 205.456 47.2279 205.27 47.4655C205.055 47.7104 204.765 47.8737 204.446 47.9331ZM203.125 47.5471H203.719C204.001 47.5768 204.29 47.5026 204.535 47.3393C204.699 47.1834 204.78 46.9607 204.765 46.738C204.765 46.6267 204.751 46.5153 204.713 46.404C204.684 46.3149 204.624 46.2258 204.55 46.1664C204.461 46.0996 204.357 46.0477 204.253 46.0254C204.105 45.9957 203.956 45.9808 203.8 45.9808H203.125V47.5471ZM152.41 48.0817C150.406 48.0594 148.484 48.8537 147.073 50.2789V48.5642H143.421V68.51H147.207V56.3881C147.207 53.6045 149.211 51.6002 151.995 51.6002C154.355 51.6002 155.974 52.9883 156.36 55.3192V55.386L160.108 55.3563V55.2598C159.589 50.8579 156.679 48.0817 152.41 48.0817ZM109.282 51.6374C109.282 52.4573 108.617 53.122 107.797 53.122C106.977 53.122 106.313 52.4573 106.313 51.6374C106.313 50.8174 106.977 50.1527 107.797 50.1527C108.617 50.1527 109.282 50.8174 109.282 51.6374ZM113.454 53.122C114.274 53.122 114.938 52.4573 114.938 51.6374C114.938 50.8174 114.274 50.1527 113.454 50.1527C112.634 50.1527 111.969 50.8174 111.969 51.6374C111.969 52.4573 112.634 53.122 113.454 53.122ZM200.096 47.6585C200.096 45.5429 201.811 43.8208 203.934 43.8208C206.049 43.8208 207.772 45.5355 207.772 47.6585C207.772 49.7815 206.057 51.4963 203.934 51.4963C201.818 51.4963 200.096 49.7815 200.096 47.6585ZM200.72 47.6659C200.72 49.4401 202.16 50.8801 203.934 50.8801C205.708 50.8801 207.148 49.4401 207.148 47.6659C207.148 45.8844 205.708 44.4517 203.934 44.4517C202.16 44.4517 200.72 45.8918 200.72 47.6659Z" fill="#404140"/>
</g>
</svg>
