<svg width="120" height="47" viewBox="0 0 120 47" fill="none" xmlns="http://www.w3.org/2000/svg">
<path d="M56 40.487L57.2 43.9773L58 41.584C58.1 41.1851 58.3 40.7862 58.4 40.487H60L58.4 44.4759C58.1 45.0742 58 45.4731 57.8 45.9717L56.6 46.0714L55 42.1823C54.8 41.6837 54.6 41.0853 54.3 40.5867L56 40.487ZM63.6 40.3873C61.9 40.3873 60.8 41.6837 60.8 43.3789C60.8 44.8748 61.9 46.0714 63.5 46.0714C65.2 46.0714 66.3 44.775 66.3 43.0798C66.3 41.584 65.2 40.3873 63.6 40.3873ZM63.5 44.775C62.8 44.775 62.2 44.1767 62.2 43.0798C62.2 42.1823 62.7 41.4842 63.5 41.4842C64.2 41.4842 64.8 42.0826 64.8 43.1795C64.8 44.077 64.3 44.775 63.5 44.775ZM67.1 45.872L69 43.0798L68.3 41.9828L67.3 40.487L69 40.3873L70.1 42.0826L70.5 41.4842C70.7 41.1851 71 40.7862 71.2 40.487H72.9L71.1 43.1795L71.8 44.1767C72.1 44.6753 72.6 45.4731 73 45.9717L71 45.872L69.9 44.077L69.5 44.6753C69.3 44.9745 69 45.5728 68.8 45.872H67.1ZM76.8 44.077L77 42.3817C77.1 41.8831 77.2 40.8859 77.2 40.487H78.4C78.5 40.7862 78.7 41.1851 78.9 41.584L79.9 43.7778L80.9 41.4842C81 41.1851 81.2 40.7862 81.4 40.487H82.5C82.5 40.9856 82.7 41.8831 82.7 42.3817L82.9 44.077C83 44.5756 83.1 45.5728 83.2 45.9717L81.7 46.0714C81.7 45.872 81.6 45.1739 81.6 44.8748L81.4 43.1795C81 44.077 80.4 45.7723 80.3 46.0714H79.5L78.3 43.2792L78.1 44.775C78.1 45.0742 78 45.6725 78 45.872H76.5C76.6 45.4731 76.7 44.5756 76.8 44.077ZM88.5 45.872H84.8V42.282V40.3873H88.4C88.4 40.7862 88.3 41.1851 88.3 41.584H86.3V42.4814H88V43.5784H86.4V44.6753H88.6C88.5 45.0742 88.5 45.4731 88.5 45.872ZM92 40.487H90.2V45.872H92.2C94 45.872 95.1 44.775 95.2 43.0798C95.1 41.3845 94 40.487 92 40.487ZM92.2 44.6753H91.8V41.9828V41.6837H92.2C93.1 41.6837 93.7 42.1823 93.7 43.1795C93.6 44.077 93.2 44.6753 92.2 44.6753ZM96.7 45.872V42.282V40.3873H98.3V45.7723L96.7 45.872ZM104.8 44.2764L103.1 40.3873L101.9 40.487C101.8 40.8859 101.6 41.2848 101.3 41.9828L99.6 45.872H101.2C101.2 45.7723 101.5 45.1739 101.6 44.8748H103.5L103.9 45.872L105.5 45.7723C105.3 45.3734 105 44.775 104.8 44.2764ZM101.9 43.9773L102.5 42.282L103.1 43.9773H101.9ZM45.7 44.4759C45.7 45.2737 45.2 45.6725 44.3 45.6725H42.7V41.584H44.2C45.1 41.584 45.6 41.9828 45.6 42.6809C45.6 43.0798 45.4 43.4787 45.1 43.5784C45.5 43.6781 45.7 44.077 45.7 44.4759ZM44.2 43.2792C44.7 43.2792 44.9 43.0798 44.9 42.6809C44.9 42.282 44.6 42.0826 44.2 42.0826H43.4V43.1795L44.2 43.2792ZM43.4 45.0742H44.3C44.8 45.0742 45 44.8748 45 44.4759C45 44.077 44.7 43.8775 44.3 43.8775H43.4V45.0742ZM49.4 41.4842H50.1L48.6 43.9773V45.6725H47.9V43.9773L46.4 41.4842H47.2L48.3 43.3789L49.4 41.4842ZM42.7 17.551C42.7 10.8697 47.9 5.58441 54.5 5.58441C58 5.58441 61.3 7.08024 63.5 9.77273C63.7 10.0719 63.9 10.3711 63.9 10.7699C63.9 11.5677 63.3 12.166 62.5 12.166C62.1 12.166 61.7 11.9666 61.4 11.5677C59.8 9.57328 57.4 8.2769 54.5 8.2769C49.5 8.2769 45.6 12.3655 45.6 17.551C45.6 22.7365 49.5 26.8251 54.5 26.8251C57.4 26.8251 59.8 25.5288 61.4 23.5343C61.8 23.1354 62.2 22.936 62.5 22.936C63.3 22.936 63.9 23.5343 63.9 24.3321C63.9 24.731 63.7 25.0301 63.5 25.3293C61.3 28.0218 58 29.6173 54.5 29.5176C47.9 29.5176 42.7 24.2324 42.7 17.551ZM66.2 20.7421C66.2 15.8557 70 11.9666 75 11.9666C80 11.9666 83.7 15.8557 83.7 20.7421C83.7 25.6285 79.9 29.5176 75 29.5176C70.1 29.5176 66.2 25.6285 66.2 20.7421ZM81 20.7421C81 17.2519 78.4 14.3599 74.9 14.3599C71.4 14.3599 68.8 17.1521 68.8 20.7421C68.8 24.2324 71.5 27.1243 74.9 27.1243C78.4 27.0246 81 24.2324 81 20.7421ZM86.7 19.1466C86.7 14.8585 89.4 11.9666 93.6 11.9666C94.3 11.9666 94.8 12.4652 94.8 13.1633C94.8 13.8613 94.2 14.3599 93.6 14.3599C91.1 14.3599 89.4 15.9555 89.4 19.0468V28.0218C89.4 28.7199 88.8 29.4179 88.1 29.4179C87.4 29.4179 86.8 28.8196 86.8 28.1215V28.0218L86.7 19.1466ZM110.3 26.8251C108.7 28.5204 106.4 29.5176 104.1 29.5176C99.2 29.5176 95.5 25.6285 95.5 20.7421C95.5 15.8557 99.2 11.9666 104.1 11.9666C106.5 11.9666 108.7 12.9638 110.3 14.6591V13.3627C110.3 12.6647 110.9 12.0663 111.6 12.0663C112.3 12.0663 112.9 12.6647 112.9 13.3627V28.1215C112.9 28.8196 112.4 29.4179 111.6 29.5176H111.5C110.8 29.5176 110.2 28.9193 110.2 28.1215V26.8251H110.3ZM110.3 21.0413V20.5427C110.2 17.0524 107.5 14.4596 104.2 14.4596C100.8 14.4596 98.1 17.2519 98.1 20.8418C98.1 24.4318 100.8 27.224 104.2 27.224C107.6 27.0246 110.2 24.4318 110.3 21.0413ZM117.4 6.98052C117.4 6.28247 118 5.68414 118.7 5.68414C119.4 5.68414 120 6.28247 120 6.98052V28.1215C120 28.8196 119.4 29.4179 118.7 29.5176C118 29.5176 117.4 28.9193 117.4 28.2212V6.98052ZM33.3 22.936C32.7 22.7365 32.1 22.936 31.8 23.5343C29.6 28.8196 24.6 32.4096 18.8 32.8084V30.116C18.9 30.0162 18.9 29.8168 19 29.7171C19.7 28.4207 21 27.7226 22.6 26.8251C24.4 25.8279 26.3 24.731 27.5 22.6368C27.8 22.0385 27.6 21.4402 27 21.141C26.5 20.8418 25.8 21.0413 25.5 21.5399C24.6 23.1354 23.1 23.9332 21.4 24.8307C20.5 25.3293 19.5 25.8279 18.7 26.526V24.9304C18.7 22.6368 20.3 21.2407 22.2 19.5455C24.6 17.4513 27.3 15.1577 27.3 10.4708C27.3 9.87245 26.8 9.37384 26.2 9.37384C25.6 9.37384 25.1 9.87245 25.1 10.4708C25.1 12.7644 24.2 14.3599 23.1 15.6563C21.9 14.0608 21.1 11.9666 21.1 10.4708C21.1 9.87245 20.6 9.37384 20 9.37384C19.4 9.37384 18.9 9.87245 18.9 10.4708C18.9 12.5649 19.9 15.2574 21.5 17.2519L20.9 17.7505C19.7 18.7477 18.6 19.7449 17.7 21.0413C16.9 19.7449 15.7 18.7477 14.5 17.7505L13.9 17.2519C15.5 15.2574 16.5 12.5649 16.5 10.4708C16.5 9.87245 16 9.37384 15.4 9.37384C14.8 9.37384 14.3 9.87245 14.3 10.4708C14.3 11.9666 13.5 14.0608 12.3 15.6563C11.1 14.3599 10.3 12.7644 10.3 10.4708C10.3 9.87245 9.8 9.37384 9.2 9.37384C8.6 9.37384 8.1 9.87245 8.1 10.4708C8.1 15.1577 10.8 17.4513 13.2 19.5455C15.2 21.2407 16.7 22.5371 16.7 24.9304V26.526C15.9 25.8279 14.9 25.3293 14 24.8307C12.4 23.9332 10.8 23.1354 9.9 21.5399C9.6 21.0413 8.9 20.8418 8.3 21.141C7.8 21.4402 7.6 22.1382 7.9 22.6368C9.1 24.8307 11.1 25.8279 12.8 26.8251C14.3 27.6229 15.7 28.4207 16.4 29.7171C16.5 29.8168 16.5 30.0162 16.6 30.116V32.8084C8.1 32.2101 1.8 24.8307 2.4 16.4541C2.7 12.7644 4.2 9.37384 6.8 6.78108C12.8 0.797774 22.5 0.797774 28.5 6.78108C29.9 8.17718 31 9.77273 31.8 11.6674C32 12.2658 32.7 12.4652 33.3 12.2658C33.9 12.0663 34.1 11.3683 33.9 10.7699C30.1 1.79499 19.8 -2.39332 10.8 1.3961C6.6 3.19109 3.2 6.48191 1.4 10.7699C-2.4 19.7449 1.8 30.0162 10.8 33.8057C17.4 36.5979 25 35.102 30.1 30.0162C31.7 28.4207 33 26.526 33.9 24.4318C34.2 23.8335 33.9 23.1354 33.3 22.936Z" fill="#64748B"/>
</svg>
