<svg width="120" height="26" viewBox="0 0 120 26" fill="none" xmlns="http://www.w3.org/2000/svg">
<path d="M87.9006 2.40386H99.5731V0L87.9006 2.40386ZM116.433 11.827H118.768V3.62182H116.887L115.817 5.25644C114.196 4.10259 112.121 2.98079 109.624 2.98079C105.701 2.98079 101.551 4.93593 101.551 9.51928C101.551 18.8142 116.077 14.6155 116.077 20.1924C116.077 21.7629 114.715 23.0771 111.862 23.0771C107.257 23.0771 104.566 20.7373 104.112 16.3783H101.713V25.1925H103.918L104.631 23.2694C106.512 24.8078 108.944 25.8335 111.408 25.8335C115.979 25.8335 120 24.1348 120 18.9745C120 9.9039 105.474 13.5257 105.474 8.65389C105.474 6.50645 106.706 5.73721 109.722 5.73721C113.613 5.76926 115.655 8.30133 116.433 11.827V11.827ZM89.8136 25.2245H99.5082V22.8206H97.6277C96.5253 22.8206 96.0389 22.2758 96.0389 21.2181V7.62825C96.0389 6.37824 97.044 6.05773 98.0816 6.05773H99.5082V3.65387H87.9978V6.05773H89.8136C91.0781 6.05773 91.4672 6.69876 91.4672 7.53209V21.6668C91.4672 22.5001 90.9484 22.8206 89.6839 22.8206C88.0303 22.8206 86.9603 22.5642 86.3767 21.0578L79.8595 3.65387H75.2878L69.0624 21.0578C68.5112 22.5963 67.3764 22.8206 65.6579 22.8206V25.2245H75.8065V22.8206H73.2775C72.6614 22.8206 72.2399 22.6924 72.2399 22.2437C72.2399 21.9553 72.3048 21.7629 72.3696 21.5706L73.4396 18.3014H80.8322L81.9022 21.5706C81.967 21.7629 82.0319 22.0514 82.0319 22.3399C82.0319 22.6604 81.7725 22.8206 81.0267 22.8206H78.4653V25.2245H89.8136ZM79.9243 15.8655H74.4123L77.0062 8.01287H77.0711L79.9243 15.8655ZM69.8082 9.55134C69.8082 5.86542 67.0197 3.62182 62.1237 3.62182H49.3812V6.02567H51.4564C52.2021 6.02567 52.8506 6.28209 52.8506 7.14748V21.6988C52.8506 22.5322 52.2021 22.8206 51.4564 22.8206H49.3812V25.2245H61.0538V22.8206H58.9787C58.2329 22.8206 57.4223 22.5642 57.4223 21.6988V15.4488H62.5453C66.89 15.4488 69.8082 13.5578 69.8082 9.55134V9.55134ZM65.0419 9.58339C65.0419 12.0834 63.4207 13.0449 60.3404 13.0449H57.3899V6.05773H60.3404C63.7449 6.05773 65.0419 7.08337 65.0419 9.58339ZM22.5669 25.2245H42.8965V15.9616H40.4972C40.2053 20.9937 39.3948 22.8527 36.0551 22.8527H30.7376V7.53209C30.7376 6.37824 31.224 6.05773 32.6506 6.05773H34.4664V3.65387H22.5669V6.05773H24.4474C25.7444 6.05773 26.1659 6.4744 26.1659 7.46799V21.4104C26.1659 22.5322 25.5499 22.8527 24.642 22.8527H22.5669V25.2245ZM0 25.2245H21.4645V16.1219H19.0651C18.7733 20.9617 17.6061 22.8206 14.6231 22.8206H8.10592V15.2244H9.82437C11.7698 15.2244 12.6452 16.218 12.6452 18.8783V19.6475H15.0446V8.7821H12.6452V9.19877C12.6452 11.827 11.7698 12.8206 9.82437 12.8206H8.10592V6.05773H13.8449C18.1897 6.05773 18.6112 7.82056 19.0975 12.2437H21.4969V3.65387H0.0324236V6.05773H1.49149C3.17752 6.05773 3.5666 6.47439 3.5666 7.88466V20.545C3.5666 22.5001 2.95055 22.8206 1.84815 22.8206H0.0324236V25.2245" fill="#64748B"/>
</svg>
