<svg width="42" height="42" viewBox="0 0 42 42" fill="none" xmlns="http://www.w3.org/2000/svg">
<path fill-rule="evenodd" clip-rule="evenodd" d="M42 22.1053C42 9.89653 32.1035 0 19.8947 0C16.4751 0 13.2388 0.775895 10.3475 2.16189L11.3024 4.15579C4.61779 7.36326 0 14.1938 0 22.1053C0 33.0938 8.90621 42 19.8947 42C29.946 42 38.2554 34.5439 39.5994 24.8618L41.7878 25.1691C41.9271 24.1677 42 23.1442 42 22.1053ZM18.8049 2.24147L18.5972 2.25474C18.6194 2.2533 18.6419 2.25163 18.6644 2.24996C18.7114 2.24648 18.7587 2.24297 18.8049 2.24147ZM17.724 2.32989C17.6886 2.33432 17.6527 2.33818 17.6168 2.34205L17.6168 2.34206C17.5808 2.34592 17.5449 2.34979 17.5096 2.35421L17.5096 2.35421C17.5803 2.34537 17.6511 2.33653 17.724 2.32989ZM15.9313 2.60621C15.9744 2.59723 16.0161 2.5897 16.0563 2.58245L16.0075 2.59184C15.9821 2.59682 15.9567 2.60179 15.9313 2.60621ZM13.8821 3.13674C13.8313 3.15221 13.7782 3.16989 13.7274 3.18758C13.7782 3.16989 13.8291 3.15221 13.8821 3.13674ZM12.8829 3.48379C12.8575 3.49374 12.8321 3.50313 12.8067 3.51253C12.7829 3.52133 12.759 3.53014 12.7352 3.5394C12.7844 3.52013 12.8337 3.50092 12.8829 3.48379ZM19.8947 39.7895C10.1286 39.7895 2.21053 31.8714 2.21053 22.1053C2.21053 12.3392 10.1286 4.42105 19.8947 4.42105C29.6608 4.42105 37.5789 12.3392 37.5789 22.1053C37.5789 31.8714 29.6608 39.7895 19.8947 39.7895ZM39.7386 23.5178C39.7397 23.5056 39.7403 23.494 39.7408 23.4824C39.7412 23.4755 39.7415 23.4687 39.7419 23.4617C39.7422 23.4569 39.7426 23.452 39.743 23.4471C39.7425 23.4533 39.7421 23.4596 39.7417 23.4659C39.7414 23.4714 39.7411 23.477 39.7409 23.4824L39.7409 23.4825C39.7403 23.4947 39.7398 23.5065 39.7386 23.5178ZM19.8949 6.63123C17.5009 6.63123 15.2351 7.17502 13.2125 8.14544L14.1674 10.1393C9.70877 12.2769 6.63171 16.8306 6.63171 22.1049C6.63171 29.4306 12.5692 35.3681 19.8949 35.3681C26.5972 35.3681 32.1323 30.3966 33.0276 23.9419L35.216 24.2491C35.3133 23.5484 35.3663 22.8322 35.3663 22.1049C35.3686 13.559 28.4408 6.63123 19.8949 6.63123ZM19.8949 32.9365C13.9132 32.9365 9.06329 28.0866 9.06329 22.1049C9.06329 16.1232 13.9132 11.2733 19.8949 11.2733C25.8766 11.2733 30.7264 16.1232 30.7264 22.1049C30.7264 28.0866 25.8766 32.9365 19.8949 32.9365ZM33.1426 22.6819C33.1514 22.4895 33.158 22.2972 33.158 22.1049C33.158 22.2994 33.1514 22.4918 33.1426 22.6819ZM16.1722 14.3289C17.2996 13.7873 18.5618 13.4844 19.8947 13.4844C24.6562 13.4844 28.5158 17.344 28.5158 22.1077C28.5158 22.5122 28.4848 22.9101 28.4318 23.3014L26.4622 23.0251C26.0135 26.2524 23.2459 28.7371 19.8947 28.7371C16.2319 28.7371 13.2632 25.7683 13.2632 22.1055C13.2632 19.4683 14.8017 17.1915 17.0321 16.1238L16.1722 14.3289ZM19.4736 15.4894C19.493 15.4877 19.5123 15.4861 19.5322 15.485C19.4924 15.4872 19.4548 15.4894 19.415 15.4938C19.4349 15.4927 19.4543 15.491 19.4736 15.4894ZM18.3363 15.6596C18.3447 15.6574 18.3532 15.6553 18.3618 15.6532C18.3533 15.6553 18.3448 15.6575 18.3363 15.6596ZM15.9158 22.1055C15.9158 24.3028 17.6975 26.0844 19.8947 26.0844C22.092 26.0844 23.8737 24.3028 23.8737 22.1055C23.8737 19.9082 22.092 18.1265 19.8947 18.1265C17.6975 18.1265 15.9158 19.9082 15.9158 22.1055Z" fill="#2447A2"/>
</svg>
