<svg width="125" height="40" viewBox="0 0 125 40" fill="none" xmlns="http://www.w3.org/2000/svg">
<path d="M20.16 40C31.294 40 40.3199 31.0457 40.3199 20C40.3199 8.95431 31.294 0 20.16 0C9.02593 0 0 8.95431 0 20C0 31.0457 9.02593 40 20.16 40Z" fill="#64748B"/>
<path d="M33.605 20C33.5449 18.3893 32.1819 17.1315 30.5532 17.1862C29.8316 17.211 29.1451 17.5043 28.6239 17.9965C26.3288 16.4454 23.6328 15.5953 20.8616 15.5357L22.1695 9.29654L26.4841 10.1964C26.6044 11.295 27.5966 12.0905 28.7041 11.9712C29.8116 11.8518 30.6134 10.8675 30.4931 9.76882C30.3728 8.67014 29.3806 7.87472 28.2731 7.99403C27.6367 8.05866 27.0654 8.42654 26.7497 8.9734L21.8087 7.99403C21.4729 7.91946 21.1372 8.12826 21.062 8.46632V8.47626L19.5737 15.4163C16.7674 15.4611 14.0363 16.3162 11.7111 17.8772C10.5285 16.7735 8.66434 16.8282 7.55186 18.0065C6.43937 19.1797 6.4945 21.0291 7.68215 22.1327C7.91267 22.3465 8.17826 22.5304 8.47392 22.6597C8.45387 22.953 8.45387 23.2463 8.47392 23.5396C8.47392 28.0189 13.7357 31.6629 20.2252 31.6629C26.7147 31.6629 31.9764 28.0239 31.9764 23.5396C31.9964 23.2463 31.9964 22.953 31.9764 22.6597C32.9887 22.1576 33.6251 21.1235 33.605 20ZM13.445 22.0035C13.445 20.8998 14.352 20 15.4645 20C16.577 20 17.484 20.8998 17.484 22.0035C17.484 23.1071 16.577 24.007 15.4645 24.007C14.347 23.997 13.445 23.1071 13.445 22.0035ZM25.1562 27.5019C23.723 28.5707 21.9691 29.1176 20.175 29.043C18.381 29.1176 16.6271 28.5707 15.1939 27.5019C15.0035 27.2732 15.0386 26.9301 15.2691 26.7412C15.4695 26.5772 15.7552 26.5772 15.9606 26.7412C17.1733 27.6212 18.6516 28.0686 20.155 27.999C21.6584 28.0785 23.1417 27.651 24.3694 26.781C24.5899 26.5672 24.9507 26.5722 25.1662 26.7909C25.3817 27.0097 25.3767 27.3676 25.1562 27.5814V27.5019ZM24.7954 24.0766C23.6829 24.0766 22.7759 23.1767 22.7759 22.0731C22.7759 20.9694 23.6829 20.0696 24.7954 20.0696C25.9079 20.0696 26.8149 20.9694 26.8149 22.0731C26.86 23.1767 25.993 24.1064 24.8806 24.1511H24.7803L24.7954 24.0766Z" fill="white"/>
<path fill-rule="evenodd" clip-rule="evenodd" d="M75.6239 20.9893C75.5437 22.0482 74.6217 22.8437 73.5593 22.7691L73.4992 22.7492H64.1232C64.3437 24.9516 66.1177 26.6717 68.3326 26.8457C69.6155 26.8059 70.8332 26.2938 71.7402 25.399C72.2915 24.872 73.1383 24.7875 73.7898 25.1902C73.8399 25.225 73.885 25.2648 73.9351 25.3095C74.5866 25.9011 74.6367 26.9003 74.0404 27.5466C72.5871 29.1325 70.4924 29.9975 68.3326 29.913C64.2585 29.913 60.9511 26.2391 60.9511 21.7351C60.9511 17.231 64.3137 13.562 68.3376 13.562C71.8705 13.7012 74.8421 16.2416 75.4936 19.6918C75.5688 20.0547 75.6139 20.4276 75.6289 20.7955C75.6289 20.8601 75.6289 20.9297 75.6239 20.9893ZM72.3416 20.0448C71.9056 18.1507 70.2669 16.7686 68.3176 16.6394C66.3632 16.7636 64.7346 18.1457 64.3036 20.0448H72.3416ZM59.7735 13.6366C60.5402 13.7311 61.1115 14.3823 61.1115 15.1479C61.1115 15.9483 60.4951 16.6095 59.6933 16.6791H59.3826C59.1521 16.6543 58.9166 16.6493 58.6861 16.6642C56.0903 16.8034 54.1009 18.9958 54.2362 21.571V28.0239C54.2412 28.0835 54.2412 28.1432 54.2362 28.2029C54.181 29.043 53.4394 29.6794 52.5925 29.6197C51.7606 29.5501 51.1242 28.8491 51.1443 28.0239V15.4462C51.1443 14.5961 51.8358 13.91 52.6927 13.91C53.5496 13.91 54.2412 14.5961 54.2412 15.4462V15.6451C55.5992 14.0542 57.7039 13.2936 59.7735 13.6366ZM112.471 15.2623C113.328 15.2623 114.02 15.9483 114.02 16.7984V28.0189C114.02 28.869 113.328 29.5551 112.471 29.5551C111.614 29.5551 110.923 28.869 110.923 28.0189V16.7984C110.923 15.9483 111.614 15.2623 112.471 15.2623ZM89.6251 6.74127C90.477 6.74127 91.1686 7.42733 91.1686 8.27247L91.1636 28.004C91.1235 28.6453 90.6825 29.1822 90.0661 29.3612C89.2493 29.5998 88.3924 29.1375 88.1519 28.3271C87.0845 29.3861 85.6312 29.9578 84.1279 29.913C80.0538 29.913 76.7414 26.2391 76.7414 21.7351C76.7414 17.231 80.1039 13.562 84.1279 13.562C85.6062 13.5223 87.0394 14.089 88.0817 15.133V8.27247C88.0817 7.42733 88.7732 6.74127 89.6251 6.74127ZM79.8183 21.7699C79.8183 24.5986 81.7476 26.8854 84.1179 26.8854L84.1279 26.8606C86.5032 26.8606 88.4174 24.5986 88.4174 21.7699C88.4174 18.9411 86.5032 16.6543 84.1179 16.6543C81.7325 16.6543 79.8183 18.9411 79.8183 21.7699ZM105.771 6.74127C106.623 6.74127 107.315 7.42733 107.315 8.27247L107.31 28.004C107.27 28.6453 106.829 29.1822 106.212 29.3612C105.395 29.5998 104.538 29.1375 104.298 28.3271C103.231 29.3861 101.777 29.9578 100.274 29.913C96.1998 29.913 92.8874 26.2391 92.8874 21.7351C92.8874 17.231 96.2499 13.562 100.274 13.562C101.752 13.5223 103.185 14.089 104.228 15.133V8.27247C104.228 7.42733 104.919 6.74127 105.771 6.74127ZM95.9693 21.7699C95.9693 24.5986 97.8986 26.8854 100.269 26.8854L100.279 26.8606C102.654 26.8606 104.568 24.5986 104.568 21.7699C104.568 18.9411 102.654 16.6543 100.269 16.6543C97.8836 16.6543 95.9693 18.9411 95.9693 21.7699ZM122.042 16.6394V28.0139V28.0141C122.042 28.0488 122.042 28.0836 122.037 28.1134C121.982 28.9585 121.256 29.6048 120.404 29.5501C119.552 29.5501 118.86 28.8641 118.86 28.0189V16.6742H117.522C117.482 16.6742 117.437 16.6742 117.397 16.6692C116.665 16.6046 116.119 15.9583 116.184 15.2275C116.184 15.2119 116.186 15.1963 116.187 15.1814C116.188 15.1678 116.189 15.1548 116.189 15.143C116.235 14.4122 116.866 13.8504 117.608 13.8951H118.951V11.6878C118.951 11.653 118.951 11.6133 118.956 11.5785C119.016 10.7383 119.752 10.1019 120.599 10.1616C121.426 10.2362 122.058 10.9272 122.048 11.7475V13.8603H123.466C123.506 13.8603 123.551 13.8603 123.591 13.8653C124.323 13.9299 124.869 14.5762 124.804 15.307C124.804 15.3226 124.802 15.3382 124.801 15.3531C124.8 15.3667 124.799 15.3797 124.799 15.3915C124.754 16.1223 124.122 16.6841 123.38 16.6394H122.042ZM115.222 11.1758C115.222 12.6804 113.993 13.9001 112.476 13.9001C110.959 13.9001 109.73 12.6804 109.73 11.1758C109.73 9.67114 110.959 8.45142 112.476 8.45142C113.993 8.45142 115.222 9.67114 115.222 11.1758Z" fill="#64748B"/>
</svg>
