<svg width="232" height="110" viewBox="0 0 232 110" fill="none" xmlns="http://www.w3.org/2000/svg">
<g opacity="0.6">
<path fill-rule="evenodd" clip-rule="evenodd" d="M96.1453 36V66.2006H103.582V54.7733C103.582 53.1667 104.515 51.5677 106.306 51.5677C108.066 51.5677 108.842 53.1428 108.842 54.7733V66.2006H116.225V52.9595C116.225 48.1415 113.573 44.7698 109.048 44.7698C105.349 44.7698 103.582 47.2278 103.582 47.2278V36H96.1453ZM80.9134 44.7671C74.7884 44.7671 70.9164 50.2603 70.9164 55.7306C70.9164 61.8863 75.1616 66.7667 80.7972 66.7667C85.0012 66.7667 86.5863 64.2054 86.5863 64.2054V66.2006H93.6965V45.2507H86.5863V47.1552C86.5863 47.1552 84.8179 44.7671 80.9134 44.7671ZM82.4258 51.4996C85.2519 51.4996 86.7103 53.7358 86.7103 55.7536C86.7103 57.9264 85.1479 60.0587 82.4258 60.0587C80.1698 60.0587 78.131 58.215 78.131 55.8461C78.131 53.4436 79.7709 51.4996 82.4258 51.4996ZM47 45.2504H55.152L59.8989 57.3947L64.7073 45.2504H72.6447L60.6928 73.9999H52.7051L55.9768 66.3817L47 45.2504ZM128.904 44.77C121.889 44.77 117.713 50.1036 117.713 55.8182C117.713 62.3214 122.77 66.7671 128.93 66.7671C134.901 66.7671 140.126 62.5231 140.126 55.9273C140.126 48.7102 134.656 44.77 128.904 44.77ZM128.971 51.5616C131.448 51.5616 133.163 53.6253 133.163 55.8259C133.163 57.7029 131.565 60.018 128.971 60.018C126.593 60.018 124.809 58.111 124.809 55.8054C124.809 53.5844 126.292 51.5616 128.971 51.5616ZM141.324 55.8182C141.324 50.1036 145.501 44.77 152.515 44.77C158.267 44.77 163.738 48.7102 163.738 55.9273C163.738 62.5231 158.513 66.7671 152.542 66.7671C146.381 66.7671 141.324 62.3214 141.324 55.8182ZM156.774 55.8259C156.774 53.6253 155.06 51.5616 152.582 51.5616C149.904 51.5616 148.421 53.5844 148.421 55.8054C148.421 58.111 150.205 60.018 152.582 60.018C155.177 60.018 156.774 57.7029 156.774 55.8259ZM169.606 66.6452C172.334 66.6452 174.545 64.4342 174.545 61.7069C174.545 58.9795 172.334 56.7686 169.606 56.7686C166.879 56.7686 164.668 58.9795 164.668 61.7069C164.668 64.4342 166.879 66.6452 169.606 66.6452ZM167.277 54.9547H176.167L184.024 36H175.167L167.277 54.9547Z" fill="#404140"/>
</g>
</svg>
